G04 DipTrace 4.2.0.0*
G04 Bottom.gbr*
%MOMM*%
G04 #@! TF.FileFunction,Copper,L2,Bot*
G04 #@! TF.Part,Single*
%AMOUTLINE6*
4,1,4,
0.07073,-0.98995,
-0.98995,0.07069,
-0.07073,0.98995,
0.98995,-0.07069,
0.07073,-0.98995,
0*%
G04 #@! TA.AperFunction,Conductor*
%ADD10C,0.25*%
G04 #@! TA.AperFunction,CopperBalancing*
%ADD15C,0.33*%
G04 #@! TA.AperFunction,Conductor*
%ADD16C,0.3*%
%ADD18C,1.0*%
%ADD20C,0.5*%
%ADD22C,0.9*%
%ADD23C,0.8*%
%ADD24C,0.2*%
G04 #@! TA.AperFunction,CopperBalancing*
%ADD26C,0.635*%
%ADD28R,1.5X1.3*%
%ADD29R,1.3X1.5*%
G04 #@! TA.AperFunction,ComponentPad*
%ADD31R,1.7X1.7*%
%ADD32C,1.7*%
%ADD33C,1.2*%
%ADD34O,14.0X1.7*%
G04 #@! TA.AperFunction,ComponentPad*
%ADD35R,1.5706X1.5706*%
%ADD36O,1.7X8.0*%
%ADD37O,1.7X7.0*%
%ADD38R,3.5X0.25*%
%ADD39R,4.0X0.25*%
G04 #@! TA.AperFunction,ComponentPad*
%ADD40R,1.75X1.75*%
%ADD41C,1.75*%
%ADD44O,1.8X1.0*%
%ADD45O,2.2X1.0*%
G04 #@! TA.AperFunction,ViaPad*
%ADD57C,1.016*%
%ADD132OUTLINE6*%
%FSLAX35Y35*%
G04*
G71*
G90*
G75*
G01*
G04 Bottom*
%LPD*%
X2499663Y6764763D2*
D16*
X2578613Y6843713D1*
X3702563D1*
X3728850Y6870000D1*
X5240000D1*
X5350000Y6980000D1*
X5880000D1*
X5990000Y6870000D1*
X6632747D1*
X7689707Y7926960D1*
X8181200D1*
X7148083Y3087533D2*
X7100000Y3039450D1*
Y2879000D1*
X1562027Y6870340D2*
D15*
Y6347853D1*
X2749553Y5160327D1*
X3288770D1*
X4823357Y4645023D2*
X5352253Y4116127D1*
X6665320Y1590433D2*
X8499903D1*
X8642870Y1733400D1*
Y1926287D1*
X3417000Y5540000D2*
D16*
Y4833000D1*
X3670000Y4580000D1*
Y4510000D1*
X3590000Y4430000D1*
X3520000D1*
X3420000Y4330000D1*
X3612330Y1423150D2*
Y2113117D1*
X3857623Y2358410D1*
X4051117D1*
Y2914483D1*
X3961530Y3004070D1*
X3765930D1*
X3554353Y3215647D1*
Y3446480D1*
X9925000Y3729000D2*
X9249000D1*
X9170000Y3650000D1*
Y3510000D1*
X8190000Y2530000D1*
X6810000D1*
X6750000Y2590000D1*
Y2950000D1*
X7279120Y3479120D1*
Y3907720D1*
X1280000Y9910000D2*
D20*
Y9920000D1*
D18*
X1360000Y10000000D1*
X1587867D1*
X1800000Y10212133D1*
Y10400000D1*
X1710000Y10490000D1*
Y10770000D1*
X1245000Y8145000D2*
D10*
X1470000D1*
D20*
X2065000D1*
X1245000Y8695000D2*
D10*
X1470000D1*
D20*
X1575000D1*
X1700000Y8820000D1*
Y9020000D1*
X1500000Y9220000D1*
X1420000D1*
X2065000Y8145000D2*
X2360000Y8440000D1*
X2940000D1*
X3430000Y8815000D2*
Y8170000D1*
X3240000Y7980000D1*
Y7800000D1*
X3430000Y7610000D1*
X3920000D1*
X4550000Y8240000D1*
X3358323Y1688143D2*
D16*
X3389743D1*
Y1973177D1*
X3170023Y2192897D1*
Y2483253D1*
Y2599977D1*
X2950000Y2820000D1*
Y2910000D1*
X3010000Y2970000D1*
X3080000D1*
X3180000Y3070000D1*
X3340000D1*
X3180000D2*
X3082217Y3167783D1*
Y3565817D1*
Y3810683D1*
Y4152217D1*
X3260000Y4330000D1*
X3309710Y2483253D2*
X3432170D1*
X3512027Y2563110D1*
X3625400D1*
X3631227Y2568937D1*
X3778073D1*
X3817080Y2529930D1*
X3260000Y4330000D2*
Y4252420D1*
X3380843Y4131577D1*
X3576533D1*
X3776060Y4331103D1*
X3129710Y3810683D2*
X3082217D1*
X3129710Y3565817D2*
X3082217D1*
X3309710Y2483253D2*
X3170023D1*
X9925000Y3983000D2*
X9253000D1*
X9070000Y3800000D1*
Y3520000D1*
X8150000Y2600000D1*
X7780000D1*
Y2656360D1*
X7716360Y2720000D1*
X7419000D1*
X7260000Y2879000D1*
Y2911693D1*
X7413517Y3065210D1*
Y3496483D1*
X7410000Y3500000D1*
Y3683517D1*
X7556483Y3830000D1*
X10208243Y3970057D2*
X9937943D1*
X9925000Y3983000D1*
X7571053Y3589923D2*
Y3805213D1*
X7559920Y3816347D1*
X7766353Y3589923D2*
X7571053D1*
X6265393Y4502390D2*
D15*
Y3873607D1*
X6389000Y3750000D1*
X7556483Y3830000D2*
D16*
Y3819783D1*
X7559920Y3816347D1*
X7049797Y4061400D2*
D3*
X5467000Y10844000D2*
Y10109970D1*
X7336970Y8240000D1*
X7620000D1*
X7862717Y7997283D1*
X8008680D1*
X8063433Y8052037D1*
X8151723D1*
X8130000Y9125000D2*
D18*
Y9261220D1*
X8216243Y9347463D1*
X8277400D1*
X8286777Y9356840D1*
X8680930Y6632743D2*
X8527743D1*
X8450000Y6555000D1*
X7226047Y6345030D2*
D22*
X7317180Y6436163D1*
X7595633D1*
X7650000Y6490530D1*
Y6555000D1*
X8286777Y9356840D2*
D16*
Y9507290D1*
X8216013Y9578053D1*
Y9660807D1*
X8262423Y9707217D1*
Y9925600D1*
X8326863Y9990040D1*
X8439537D1*
X8483670Y10034173D1*
X8829027Y6594700D2*
X8790983Y6632743D1*
X8680930D1*
X8151723Y8052037D2*
D15*
X8307617D1*
Y7373663D1*
X8020143Y7086190D1*
X7555790D1*
X7218127Y6748527D1*
Y6674887D1*
X7088110Y6544870D1*
X7000040Y6456800D1*
Y6438480D1*
X6192640Y5631080D1*
Y5304120D1*
X6088990Y5200470D1*
X5609673D1*
X5455557Y5354587D1*
X7226047Y6345030D2*
X7168760D1*
X7156043Y6357747D1*
X7085177D1*
X7015173Y6427750D1*
Y6463127D1*
X7088110Y6536063D1*
Y6544870D1*
X8450000Y6555000D2*
D23*
X8449713Y6554713D1*
Y6476133D1*
X8409743Y6436163D1*
X7595633D1*
X3040000Y8870003D2*
D16*
X3018660Y8848663D1*
X2893520Y8973803D1*
Y9859617D1*
X2660683Y10092453D1*
X2500817D1*
X2815267Y8888440D2*
Y9560993D1*
X2648770Y9727490D1*
X2130000Y9390000D2*
D24*
Y8580000D1*
X1860000Y8310000D1*
X1550000D1*
X1515000Y8345000D1*
X1270000D1*
X1600000Y9270000D2*
X1540000D1*
X1460000Y9350000D1*
Y9730000D1*
X1500000Y9770000D1*
X1860000Y9210000D2*
Y9710000D1*
X1910000Y9760000D1*
X2030000Y10080000D2*
D16*
Y9860000D1*
X1705000Y8395000D2*
D24*
X1720000Y8380000D1*
X1860000D1*
X2030000Y8550000D1*
Y9860000D1*
X1705000Y8395000D2*
X1655000Y8445000D1*
X1270000D1*
X1245000Y8545000D2*
D10*
X1470000D1*
D20*
X1595000D1*
X1760000Y8710000D1*
X1810000Y8760000D1*
Y9040000D1*
X1720000Y9130000D1*
Y9310000D1*
X1770000Y9360000D1*
Y9970000D1*
X1930000Y10130000D1*
Y10460000D1*
X1830000Y10560000D1*
X1730000Y8710000D2*
X1760000D1*
X1245000Y8295000D2*
D10*
X1475000D1*
D20*
X1530000Y8240000D1*
X1920000D1*
X2100000Y8420000D1*
X1910000Y8540000D2*
X1900000D1*
X1730000Y8710000D1*
X10039000Y10590000D2*
D16*
Y10072950D1*
X9419983D1*
X9147030Y9799997D1*
Y9185607D1*
X9550000Y8782637D1*
Y7120000D1*
X9410717Y6980717D1*
X7740717D1*
X7490000Y6730000D1*
Y6555000D1*
X9925000Y1951000D2*
X9256390D1*
Y1970413D1*
X9166627Y2060177D1*
X8298290D1*
Y2036547D1*
X8212743Y1951000D1*
X6001730D1*
X5890000Y2062730D1*
Y3840000D1*
X6040000Y3990000D1*
X6135000D1*
X9925000Y2205000D2*
X9198710D1*
X9132650Y2138940D1*
X8219527D1*
Y2145507D1*
X6544767D1*
X5980000Y2710273D1*
Y3163640D1*
X6056360Y3240000D1*
X6367300D1*
X6527123Y3399823D1*
Y4006360D1*
X6463483Y4070000D1*
X6389000D1*
X9925000Y2459000D2*
X9239000D1*
X9233657Y2464343D1*
X8862877D1*
X8615437Y2216903D1*
X6613097D1*
X6040000Y2790000D1*
Y3096360D1*
X6123640Y3180000D1*
X6400433D1*
X6618090Y3397657D1*
Y4341023D1*
X6328253Y4630860D1*
X6218707D1*
X6135000Y4547153D1*
Y4150000D1*
X9925000Y2713000D2*
X9223000D1*
X9059010Y2549010D1*
X8858937D1*
X8581963Y2272037D1*
X6727963D1*
X6420000Y2580000D1*
Y3110000D1*
X6750000Y3440000D1*
Y4875000D1*
X6860000D1*
X9925000Y2967000D2*
X9316307D1*
X8955417Y2606110D1*
X8826110D1*
X8550000Y2330000D1*
X6760000D1*
X6510000Y2580000D1*
Y3080000D1*
X6815130Y3385130D1*
Y4505130D1*
X6931000Y4621000D1*
X6940000D1*
X9925000Y3221000D2*
X9115907D1*
X8570000Y2675093D1*
Y2540000D1*
X8440000Y2410000D1*
X6760000D1*
X6610000Y2560000D1*
Y3050000D1*
X6890937Y3330937D1*
Y4020233D1*
X9925000Y3475000D2*
X9265730D1*
X8270730Y2480000D1*
X6780000D1*
X6690000Y2570000D1*
Y3030000D1*
X7184737Y3524737D1*
Y4275263D1*
X7100000Y4360000D1*
Y4621000D1*
X4998320Y2298187D2*
X4640000D1*
X5136323Y1688197D2*
Y3373677D1*
X4320000Y4190000D1*
X3860000D1*
X3670000Y4000000D1*
Y3820000D1*
X3750000Y3740000D1*
X3930000D1*
X9129240Y8744580D2*
Y8738237D1*
X9044310Y8653307D1*
X8942833D1*
X8906310Y8616783D1*
Y7920000D1*
X9081000D1*
X2106000Y6083000D2*
X2066793D1*
X1932663Y6217130D1*
Y6413753D1*
X2101197Y6582287D1*
X2792187D1*
X2955103Y6745203D1*
X3797777D1*
X3822980Y6720000D1*
X4890543D1*
X4900543Y6710000D1*
X6567093D1*
X7692297Y7835203D1*
X8103587D1*
X8168417Y7770373D1*
Y7470700D1*
X3066000Y6083000D2*
X2970220D1*
X2883640Y6169580D1*
Y6460020D1*
X3007233Y6583613D1*
X3822940D1*
X3879327Y6640000D1*
X6575717D1*
X7683047Y7747330D1*
X8036197D1*
X8099837Y7683690D1*
Y7643413D1*
X8030770Y7574347D1*
X3930000Y3900000D2*
X3820000D1*
X3755000Y3965000D1*
X3900000Y4110000D1*
X4260000D1*
X4506797Y3863203D1*
Y2196710D1*
X4628323Y2075183D1*
Y1688180D1*
X3320000Y6083000D2*
Y5988377D1*
X3671640Y5636737D1*
Y4796427D1*
X4032840Y4435227D1*
Y4312520D1*
X4025500Y4305180D1*
X9531000Y10844000D2*
Y10779493D1*
X9411173Y10659667D1*
X9082530D1*
X9024873Y10602010D1*
Y9051050D1*
X9088297Y8987627D1*
X9246850D1*
X9336113Y8898363D1*
Y8493247D1*
X9200000D1*
Y8100000D1*
X9180000Y8080000D1*
X9081000D1*
X4016000Y6083000D2*
X3943473D1*
X3830610Y6195863D1*
Y6441003D1*
X3937860Y6548253D1*
X4739673D1*
X4751420Y6560000D1*
X6601500D1*
X7725367Y7683867D1*
X7793277D1*
X7817687Y7659457D1*
X4130000Y3980000D2*
X4220000D1*
X4370000Y3830000D1*
Y2082183D1*
X4374323Y2077860D1*
Y1688173D1*
X4270000Y6083000D2*
Y5966697D1*
X4105267Y5801963D1*
X3922093D1*
X3858453Y5738323D1*
Y4838217D1*
X4245527Y4451143D1*
Y4420533D1*
X4120323Y1688167D2*
Y1975843D1*
X4248677Y2104197D1*
Y2950330D1*
X3820150Y3378857D1*
Y3578123D1*
X3590563Y3807710D1*
Y4009147D1*
X3733080Y4151663D1*
X3737843D1*
X3890260Y4304080D1*
Y4485150D1*
X3865880D1*
X3756840D1*
X3601690Y4330000D1*
X3580000D1*
X2360000Y6083000D2*
Y5999360D1*
X2549063Y5810297D1*
X3402093D1*
X3589190Y5623200D1*
Y4761840D1*
X3865880Y4485150D1*
X3574000Y6083000D2*
D15*
X3769460Y5887540D1*
Y4811767D1*
X4126487Y4454740D1*
Y4350383D1*
X4207217Y4269653D1*
X4361040D1*
X5666117Y2964577D1*
Y2029783D1*
X5944277Y1751623D1*
X7584323D1*
X9023000Y10844000D2*
D16*
Y10735357D1*
X8932623Y10644980D1*
Y9010690D1*
X9007577Y8935737D1*
X9163250D1*
X9244387Y8854600D1*
Y8587830D1*
X9023000D1*
Y8298000D1*
X9081000Y8240000D1*
X3467077Y2697077D2*
X3530000Y2760000D1*
X3650000D1*
X3700000Y2810000D1*
Y2970000D1*
X3600000Y3070000D1*
X3500000D1*
X3430733Y2230163D2*
X3482460D1*
X3631233Y2378937D1*
X4524000Y6083000D2*
D15*
X4143833Y5702833D1*
X4030383D1*
X3949147Y5621597D1*
Y4877350D1*
X5797157Y3029340D1*
Y2048123D1*
X6002097Y1843183D1*
X7765910D1*
X3817080Y2719930D2*
D16*
D3*
X4120337Y1169167D2*
Y1205533D1*
X3996193Y1329677D1*
Y2287623D1*
X3938733Y2230163D1*
X8121470Y2046883D2*
D15*
X8116523Y2041937D1*
X6065643D1*
X5102357Y4598177D2*
Y4631173D1*
X4965393Y4768137D1*
Y4914847D1*
X5030120Y5828317D2*
X4555633D1*
X4550900Y5823583D1*
X3104330Y1423137D2*
D16*
Y2555670D1*
X2850000Y2810000D1*
Y3150000D1*
X3008360Y3308360D1*
Y4238360D1*
X3100000Y4330000D1*
X10540000Y6269000D2*
X9200000D1*
X8672380Y4124197D2*
X8476577Y4320000D1*
X8323640D1*
X8230000Y4226360D1*
Y4009000D1*
X8131000Y3910000D1*
X5434000Y6083000D2*
D15*
Y6002077D1*
X5080050Y5648127D1*
X4167557D1*
X4038713Y5519283D1*
Y5090650D1*
X4108717Y5020647D1*
X4835190D1*
X4850690Y5036147D1*
X6256147D1*
X6306777Y5086777D1*
X7776007D1*
X8104523Y4758260D1*
Y4351837D1*
X8230000Y4226360D1*
X2850330Y1423127D2*
D16*
Y2045343D1*
X2768913Y2126760D1*
Y3268913D1*
X2940000Y3440000D1*
Y4450000D1*
X3020000Y4530000D1*
X10540000Y6015000D2*
X9235000D1*
X9180000Y5960000D1*
X4810163Y5180117D2*
D15*
X4882060Y5108220D1*
X6158220D1*
X6221800Y5171800D1*
X7790730D1*
X8757280Y4205250D1*
Y4006873D1*
X8677143Y3926737D1*
Y3673490D1*
X8588453Y3584800D1*
X8487153Y3686100D1*
Y3887847D1*
X8385000Y3990000D1*
X1830000Y3480000D2*
D16*
X1810000D1*
X1720000Y3570000D1*
Y3642253D1*
X2264643Y4186897D1*
X2463103D1*
X2670000Y3980000D1*
X10540000Y5761000D2*
X9171000D1*
X10540000Y5507000D2*
X9170000D1*
X2088323Y1688107D2*
Y3368323D1*
X2130000Y3410000D1*
X1920000Y3620000D2*
X1954017D1*
X2366287Y4032270D1*
X2404017Y4070000D1*
X2450000D1*
X2580000Y3940000D1*
Y3910000D1*
X2670000Y3820000D1*
X2324853Y4077867D2*
X2366287D1*
Y4032270D1*
X9925000Y5253000D2*
X8833000D1*
X8503057Y4923057D1*
X8270613D1*
X1834323Y1688097D2*
Y3264323D1*
X2310000Y3740000D1*
X2470000D1*
X10540000Y4999000D2*
X9301777D1*
X9282917Y5017860D1*
X8727860D1*
X8491300Y4781300D1*
X8366170D1*
X7808493Y4794380D2*
X7770000D1*
Y4770000D1*
X7750000Y4750000D1*
X7709000D1*
X7580000Y4621000D1*
X2670000Y3660000D2*
X2700000D1*
X2800000Y3760000D1*
Y4030000D1*
X2720000Y4110000D1*
X2660000D1*
X2508250Y4261750D1*
X1749330D1*
X1685690Y4198110D1*
X1678110D1*
X1555200Y4075200D1*
X1533640D1*
X1470000Y4011560D1*
Y1785167D1*
X1616863Y1638303D1*
Y1335570D1*
X1783337Y1169097D1*
X1834337D1*
X2759597Y4622600D2*
Y4544003D1*
X2595760Y4380167D1*
Y4349260D1*
X2508250Y4261750D1*
X1562023Y7124340D2*
X1456213D1*
X1407887Y7076013D1*
Y5362113D1*
X2508250Y4261750D1*
X9925000Y4745000D2*
X9305000D1*
X8860000Y4300000D1*
Y3990000D1*
X8760533Y3890533D1*
Y3490533D1*
X8450000Y3180000D1*
X8081990D1*
X8016420Y3245570D1*
Y4742247D1*
X7756360Y5002307D1*
X7553640D1*
X7490000Y4938667D1*
Y4885000D1*
X7500000Y4875000D1*
X9925000Y4491000D2*
X9191000D1*
X8960000Y4260000D1*
Y3980000D1*
X8870000Y3890000D1*
Y3510000D1*
X8470000Y3110000D1*
X8007473D1*
X7943833Y3173640D1*
Y4459447D1*
X7904877Y4498403D1*
X7442793D1*
X7420000Y4521197D1*
Y4621000D1*
X2470000Y3580000D2*
X2389537D1*
X2263570Y3454033D1*
Y2243247D1*
X2216703Y2196380D1*
X3538923Y7834547D2*
Y7887920D1*
X4180003Y8529000D1*
Y8943243D1*
X4434003Y8943250D2*
X4607253Y8770000D1*
X5090000D1*
X5210000Y8890000D1*
X5829170D1*
X6243550Y8475620D1*
Y7003240D1*
X8762343Y4902323D2*
X8785207D1*
X8812487Y4875043D1*
X10670043D1*
X10794000Y4999000D1*
X4926000Y6083000D2*
X4838567D1*
X4733340Y6188227D1*
Y6404517D1*
X4808823Y6480000D1*
X6664690D1*
X7681007Y7496317D1*
X2465223Y2230000D2*
X2380000D1*
Y3060000D1*
X2670000Y3350000D1*
Y3500000D1*
X3286487Y9064223D2*
Y8222817D1*
X2842613Y7778943D1*
X1703287D1*
X1310000Y7385657D1*
Y4279727D1*
X1342110Y4247617D1*
X1610000Y3940653D2*
Y1752383D1*
X1690723Y1671660D1*
Y1374340D1*
X1767843Y1297220D1*
X2214230D1*
X2342337Y1169113D1*
X7980000Y2920000D2*
X7621000D1*
X7580000Y2879000D1*
X3540487Y9064230D2*
Y8049127D1*
X3392850Y7901490D1*
Y7791943D1*
X3470687Y7714107D1*
X3674193D1*
X4525623Y8565537D1*
X4685577D1*
X4688197Y8568157D1*
X5148157D1*
X5380000Y8800000D1*
X5810000D1*
X6155720Y8454280D1*
Y7065720D1*
X6100000Y7010000D1*
X8896380Y5126933D2*
X10667933D1*
X10794000Y5253000D1*
X4302163Y5180117D2*
X4203083D1*
X4135323Y5247877D1*
Y5501120D1*
X4194413Y5560210D1*
X5148303D1*
X5625247Y6037153D1*
X6360880D1*
X7633647Y7309920D1*
X7670507D1*
X7674727Y7305700D1*
X8550000Y3450000D2*
Y3360000D1*
X8430000Y3240000D1*
X8210000D1*
X8150000Y3300000D1*
Y3411000D1*
X8131000Y3430000D1*
X8584227Y3744227D2*
Y4095773D1*
X8410000Y4270000D1*
X8360000D1*
X8280000Y4190000D1*
Y3739000D1*
X8131000Y3590000D1*
X7410000Y8857000D2*
X7074937D1*
X5884133Y10047803D1*
Y10568143D1*
X5978317Y10662327D1*
X6334117D1*
X6487360Y10815570D1*
Y10839640D1*
X6483000Y10844000D1*
X4270000Y3190000D2*
Y3200000D1*
X4030000Y3440000D1*
Y3480000D1*
X3930000Y3580000D1*
X7196940Y8616477D2*
X7348970D1*
X7875663Y8089783D1*
X8021533D1*
X8145207Y8213457D1*
X8300590D1*
X8459147Y8054900D1*
Y7763160D1*
X8928470Y7293837D1*
X9067163D1*
X9081000Y7280000D1*
X8505000Y5373000D2*
X8447000D1*
X8380000Y5440000D1*
Y5770000D1*
X8470000Y5860000D1*
Y5899467D1*
X8733500Y6162967D1*
Y6294790D1*
X8935993Y6497283D1*
Y6644130D1*
X8841483Y6738640D1*
X8388640D1*
X8290000Y6640000D1*
Y6555000D1*
X8251000Y5373000D2*
Y5230000D1*
X8550000D1*
X8650000Y5330000D1*
Y5981293D1*
X8803433Y6134727D1*
Y6271900D1*
X9002713Y6471180D1*
Y6673420D1*
X8874283Y6801850D1*
X8271850D1*
X8120000Y6650000D1*
Y6565000D1*
X8130000Y6555000D1*
X7997000Y5373000D2*
Y5333000D1*
X8160000Y5170000D1*
X8570000D1*
X8710000Y5310000D1*
Y5941927D1*
X8816720Y6048647D1*
X9011830D1*
X9056583Y6093400D1*
Y6686267D1*
X8881827Y6861023D1*
X8171023D1*
X8010000Y6700000D1*
Y6595000D1*
X7970000Y6555000D1*
X7743000Y5373000D2*
X7757000D1*
X8030000Y5100000D1*
X8590000D1*
X8770000Y5280000D1*
Y5910000D1*
X8860000Y6000000D1*
X9043733D1*
X9108493Y6064760D1*
Y6714097D1*
X8905083Y6917507D1*
X8057507D1*
X7800000Y6660000D1*
Y6565000D1*
X7810000Y6555000D1*
X3358337Y1169143D2*
Y1174177D1*
X3477330Y1293170D1*
X3736343D1*
X3866330Y1423157D1*
X3309710Y2673253D2*
Y2820290D1*
X3260000Y2870000D1*
X3319710Y3565817D2*
X3352080D1*
X3454537Y3668273D1*
X3319710Y3810683D2*
X3360253D1*
X3431660Y3739277D1*
Y3691150D1*
X3454537Y3668273D1*
X3319710Y3810683D2*
X3378303D1*
X3488383Y3920763D1*
X2759597Y4812600D2*
Y4916640D1*
X2846890Y5003933D1*
X3026067D1*
X3184730Y4845270D1*
X3500000Y4530000D1*
X3184730Y4845270D2*
X3369593Y5030133D1*
Y5307163D1*
X3300503Y5376253D1*
X2650267D1*
X1743133Y6283387D1*
Y6425357D1*
X2245787Y6928010D1*
X3726370D1*
X5133863Y8335503D1*
X5130027Y9148957D2*
Y9240977D1*
X5604623Y9715573D1*
X10794000Y3983000D2*
X10540000Y4237000D1*
X9925000D2*
X9227000D1*
X9060000Y4070000D1*
Y3970000D1*
X8970000Y3880000D1*
Y3520000D1*
X8490000Y3040000D1*
X7650430D1*
X7587647Y3102783D1*
Y3403357D1*
X7861490D1*
X7879043Y3420910D1*
Y3815110D1*
X7640130Y4054023D1*
X7586790D1*
Y4060000D1*
X7070000Y3870000D2*
Y3640000D1*
X7282437Y3221887D2*
X7358360Y3297810D1*
Y3816250D1*
X7402640Y3860530D1*
Y4065413D1*
X7586790D1*
Y4060000D1*
X7049797Y3871400D2*
X7070000Y3870000D1*
X7559913Y4006347D2*
Y4033123D1*
X7586790Y4060000D1*
X7766353Y3399923D2*
X7780933D1*
X7861490Y3403357D1*
X7571053Y3399923D2*
X7587647Y3403357D1*
X6150980Y9176910D2*
Y8786637D1*
X6355883Y8581733D1*
Y7072030D1*
X6421417Y7006497D1*
X6847757Y5712053D2*
X6537080Y5401377D1*
X8210000Y8857000D2*
D18*
Y8908033D1*
X8287130Y8985163D1*
X8564760D1*
X8653367Y9073770D1*
Y9304143D1*
X8615953Y9341557D1*
X8492067D1*
X8476777Y9356847D1*
X8680937Y6442743D2*
X8657743D1*
X8530000Y6315000D1*
X7226053Y6155030D2*
X7562463D1*
Y6307463D1*
X7570000Y6315000D1*
X10293000Y10590000D2*
D16*
Y9873000D1*
X10120290Y9700290D1*
X9750000D1*
Y7090000D1*
X9513157Y6853157D1*
X9392493D1*
X9286163Y6746827D1*
X8592327Y6142183D2*
Y6163843D1*
X8663210Y6234727D1*
Y6425017D1*
X8680937Y6442743D1*
X8592327Y6142183D2*
X7877573D1*
X7727930Y5992540D1*
X7388543D1*
X7226053Y6155030D1*
X8757450Y9611380D2*
X8740123Y9594053D1*
X8720633D1*
X8706927Y9607760D1*
X8602650D1*
X8477027Y9482137D1*
Y9341557D1*
X8492067D1*
X9315763Y9700290D2*
X9750000D1*
X8577480Y10562167D2*
X6402167D1*
X6050000Y10210000D1*
Y10090000D1*
X7900000Y2680000D2*
X7800000Y2780000D1*
X7519000D1*
X7420000Y2879000D1*
X5721000Y10844000D2*
Y10050477D1*
X7042767Y8728710D1*
X7468497D1*
X7988247Y8208960D1*
X7971747Y10370980D2*
X7970000Y9578047D1*
Y9125000D1*
X8026013Y9578047D2*
X7970000D1*
X8479747Y10370993D2*
X8598893D1*
X8707243Y10262643D1*
X8864083Y10105803D1*
Y8995913D1*
X8527943Y8659773D1*
X8137897D1*
X8061790Y8735880D1*
Y8845210D1*
X8050000Y8857000D1*
X8618017Y10168527D2*
X8707243Y10257753D1*
Y10262643D1*
D57*
X2499663Y6764763D3*
X8181200Y7926960D3*
X3288770Y5160327D3*
X4823357Y4645023D3*
X5352253Y4116127D3*
X6665320Y1590433D3*
X8642870Y1926287D3*
X3554353Y3446480D3*
X7279120Y3907720D3*
X1280000Y9910000D3*
X1710000Y10770000D3*
X2065000Y8145000D3*
X1420000Y9220000D3*
X2940000Y8440000D3*
X2065000Y8145000D3*
X3430000Y8815000D3*
X3240000Y7980000D3*
X4550000Y8240000D3*
X3776060Y4331103D3*
X7556483Y3830000D3*
D3*
D3*
X10208243Y3970057D3*
X6265393Y4502390D3*
X7049797Y4061400D3*
X8151723Y8052037D3*
X8829027Y6594700D3*
X3040000Y8870003D3*
X2500817Y10092453D3*
X2815267Y8888440D3*
X2648770Y9727490D3*
X2130000Y9390000D3*
X1600000Y9270000D3*
X1500000Y9770000D3*
X1860000Y9210000D3*
X1910000Y9760000D3*
X2030000Y10080000D3*
Y9860000D3*
X1705000Y8395000D3*
D3*
X1830000Y10560000D3*
X1730000Y8710000D3*
X2100000Y8420000D3*
X1910000Y8540000D3*
X1730000Y8710000D3*
X2100000Y8420000D3*
X6890937Y4020233D3*
X4998320Y2298187D3*
X4640000D3*
X9129240Y8744580D3*
X8168417Y7470700D3*
X8030770Y7574347D3*
X4025500Y4305180D3*
X7817687Y7659457D3*
X4245527Y4420533D3*
X7584323Y1751623D3*
X3467077Y2697077D3*
X7765910Y1843183D3*
X3817080Y2719930D3*
D3*
X6065643Y2041937D3*
X5102357Y4598177D3*
X4965393Y4914847D3*
X5030120Y5828317D3*
X4550900Y5823583D3*
X8121470Y2046883D3*
X9200000Y6269000D3*
X8672380Y4124197D3*
X9180000Y5960000D3*
X1830000Y3480000D3*
X9171000Y5761000D3*
X9170000Y5507000D3*
X2130000Y3410000D3*
X1920000Y3620000D3*
X2324853Y4077867D3*
X8270613Y4923057D3*
X8366170Y4781300D3*
X7808493Y4794380D3*
X2216703Y2196380D3*
X3538923Y7834547D3*
X6243550Y7003240D3*
X8762343Y4902323D3*
X7681007Y7496317D3*
X2465223Y2230000D3*
X1342110Y4247617D3*
X1610000Y3940653D3*
X7980000Y2920000D3*
X6100000Y7010000D3*
X8896380Y5126933D3*
X7674727Y7305700D3*
X8550000Y3450000D3*
X8584227Y3744227D3*
X4270000Y3190000D3*
X7196940Y8616477D3*
X3454537Y3668273D3*
D3*
X3488383Y3920763D3*
X5133863Y8335503D3*
X5130027Y9148957D3*
X5604623Y9715573D3*
X7587647Y3403357D3*
D3*
X7586790Y4060000D3*
X7070000Y3870000D3*
Y3640000D3*
X7587647Y3403357D3*
X7070000Y3870000D3*
X6150980Y9176910D3*
X6421417Y7006497D3*
X6847757Y5712053D3*
X6537080Y5401377D3*
D3*
X9286163Y6746827D3*
X8592327Y6142183D3*
D3*
X8757450Y9611380D3*
X9315763Y9700290D3*
X8577480Y10562167D3*
X6050000Y10090000D3*
X7900000Y2680000D3*
X7988247Y8208960D3*
X3120000Y10300000D3*
Y10140000D3*
Y9970000D3*
X3400000Y9900000D3*
X3570000Y10130000D3*
Y10390000D3*
X3400000D3*
X3570000Y9900000D3*
X2208123Y10825083D2*
D26*
X5310970D1*
X2208123Y10761917D2*
X5311880D1*
X2208123Y10698750D2*
X5311880D1*
X2208123Y10635583D2*
X5311880D1*
X2208123Y10572417D2*
X5311880D1*
X2208123Y10509250D2*
X5311880D1*
X2208123Y10446083D2*
X5311880D1*
X2208123Y10382917D2*
X5311880D1*
X2208123Y10319750D2*
X4427857D1*
X4572127D2*
X4703300D1*
X5194697D2*
X5311880D1*
X2208123Y10256583D2*
X4361413D1*
X4638573D2*
X4703300D1*
X5258453D2*
X5311880D1*
X2208123Y10193417D2*
X2436047D1*
X2565597D2*
X4343093D1*
X4656893D2*
X4703300D1*
X5276410D2*
X5311880D1*
X2208123Y10130250D2*
X2384093D1*
X2743560D2*
X4352707D1*
X4647277D2*
X4703300D1*
X5266977D2*
X5311880D1*
X2208123Y10067083D2*
X2380630D1*
X2806723D2*
X4398327D1*
X4601657D2*
X4703300D1*
X5222590D2*
X5311880D1*
X2208123Y10003917D2*
X2418503D1*
X2583097D2*
X2628547D1*
X2869887D2*
X4362140D1*
X4637843D2*
X4722303D1*
X5257727D2*
X5311880D1*
X2208123Y9940750D2*
X2691713D1*
X2933097D2*
X4343183D1*
X4656800D2*
X4703663D1*
X5276320D2*
X5311880D1*
X2208123Y9877583D2*
X2754877D1*
X2978717D2*
X4352207D1*
X4647777D2*
X4712553D1*
X5267477D2*
X5311880D1*
X2208123Y9814417D2*
X2564653D1*
X2732893D2*
X2806327D1*
X2980720D2*
X4342820D1*
X4657210D2*
X4755890D1*
X4970113D2*
X5009870D1*
X5224140D2*
X5311880D1*
X2208123Y9751250D2*
X2528197D1*
X2769307D2*
X2806327D1*
X2980720D2*
X4342820D1*
X4657210D2*
X4723033D1*
X5256950D2*
X5311880D1*
X2208123Y9688083D2*
X2532617D1*
X2980720D2*
X4342820D1*
X4657210D2*
X4703757D1*
X5276227D2*
X5311880D1*
X2208123Y9624917D2*
X2586850D1*
X2980720D2*
X4342820D1*
X4657210D2*
X4712050D1*
X5267933D2*
X5311880D1*
X2208123Y9561750D2*
X2693807D1*
X2980720D2*
X4342820D1*
X4657210D2*
X4754343D1*
X4971620D2*
X5008367D1*
X5225643D2*
X5311880D1*
X2208123Y9498583D2*
X2728080D1*
X2980720D2*
X5266947D1*
X3738097Y9435417D2*
X5203783D1*
X3738097Y9372250D2*
X5140617D1*
X3738097Y9309083D2*
X3814720D1*
X4037283D2*
X4068743D1*
X4593683D2*
X4682793D1*
X4997187D2*
X5077453D1*
X2704820Y10160190D2*
X2683693Y10169960D1*
X2660683Y10173303D1*
X2584350Y10173287D1*
X2580960Y10177213D1*
X2562257Y10191610D1*
X2541040Y10201950D1*
X2518173Y10207803D1*
X2494600Y10208937D1*
X2471280Y10205300D1*
X2449167Y10197047D1*
X2429170Y10184507D1*
X2412107Y10168200D1*
X2398673Y10148793D1*
X2389423Y10127080D1*
X2384733Y10103947D1*
X2384797Y10080343D1*
X2389610Y10057237D1*
X2398973Y10035573D1*
X2412510Y10016237D1*
X2429660Y10000020D1*
X2449723Y9987590D1*
X2471877Y9979450D1*
X2495217Y9975937D1*
X2518787Y9977197D1*
X2541620Y9983173D1*
X2562783Y9993623D1*
X2581410Y10008120D1*
X2584897Y10011603D1*
X2627190Y10011607D1*
X2812670Y9826110D1*
X2812673Y9677927D1*
X2765210Y9725383D1*
X2765420Y9727800D1*
X2762970Y9751273D1*
X2755843Y9773777D1*
X2744333Y9794383D1*
X2728913Y9812250D1*
X2710210Y9826647D1*
X2688993Y9836987D1*
X2666127Y9842840D1*
X2642553Y9843973D1*
X2619233Y9840337D1*
X2597120Y9832083D1*
X2577123Y9819543D1*
X2560060Y9803237D1*
X2546627Y9783830D1*
X2537377Y9762117D1*
X2532687Y9738983D1*
X2532750Y9715380D1*
X2537563Y9692273D1*
X2546927Y9670610D1*
X2560463Y9651273D1*
X2577613Y9635057D1*
X2597677Y9622627D1*
X2619830Y9614487D1*
X2643170Y9610973D1*
X2651073Y9610847D1*
X2734417Y9527483D1*
X2734430Y9441750D1*
X2234027Y9441740D1*
X2225563Y9456893D1*
X2210143Y9474760D1*
X2201750Y9481967D1*
Y10888250D1*
X5318250Y10888230D1*
X5318253Y10866303D1*
X5316610Y10855763D1*
X5316577Y10832667D1*
X5318250Y10821720D1*
X5318263Y9543553D1*
X5072857Y9298147D1*
X5060230Y9281750D1*
X4990850Y9281770D1*
Y9323673D1*
X4689150D1*
X4689130Y9281750D1*
X4587347Y9281760D1*
Y9350600D1*
X4280647D1*
X4280660Y9312340D1*
X4272830Y9319303D1*
X4253110Y9332043D1*
X4231673Y9341623D1*
X4209030Y9347820D1*
X4185703Y9350487D1*
X4162243Y9349563D1*
X4139200Y9345067D1*
X4117113Y9337107D1*
X4096500Y9325870D1*
X4077843Y9311617D1*
X4061583Y9294683D1*
X4053247Y9282803D1*
X4052867Y9283020D1*
X4051330Y9285600D1*
X4036373Y9303697D1*
X4018830Y9319297D1*
X3999110Y9332037D1*
X3977673Y9341617D1*
X3955030Y9347813D1*
X3931703Y9350480D1*
X3908243Y9349557D1*
X3885200Y9345060D1*
X3863113Y9337100D1*
X3842500Y9325863D1*
X3823843Y9311610D1*
X3807583Y9294677D1*
X3798510Y9281747D1*
X3731750Y9281740D1*
Y9390000D1*
X3731500Y9413977D1*
X3726073Y9428117D1*
X3714710Y9438137D1*
X3700000Y9441750D1*
X3693830D1*
Y9471580D1*
X3387130D1*
X3387123Y9441750D1*
X3377060Y9441740D1*
X3359593Y9453023D1*
X3338157Y9462603D1*
X3315513Y9468800D1*
X3292187Y9471467D1*
X3268727Y9470543D1*
X3245683Y9466047D1*
X3223597Y9458087D1*
X3202983Y9446850D1*
X3196297Y9441740D1*
X3123020Y9441757D1*
X3105593Y9453017D1*
X3084157Y9462597D1*
X3061513Y9468793D1*
X3038187Y9471460D1*
X3014727Y9470537D1*
X2991683Y9466040D1*
X2974363Y9459800D1*
X2974370Y9859550D1*
X2972623Y9876327D1*
X2964597Y9898150D1*
X2950690Y9916787D1*
X2717903Y10149573D1*
X2704820Y10160190D1*
X4732983Y10337350D2*
X5016350D1*
Y10299683D1*
X5033503Y10312627D1*
X5054117Y10323863D1*
X5076203Y10331823D1*
X5099247Y10336320D1*
X5122707Y10337243D1*
X5146033Y10334577D1*
X5168677Y10328380D1*
X5190110Y10318800D1*
X5209830Y10306060D1*
X5227377Y10290460D1*
X5242333Y10272363D1*
X5254353Y10252193D1*
X5263153Y10230430D1*
X5268527Y10207573D1*
X5270350Y10184000D1*
X5268577Y10160757D1*
X5263253Y10137890D1*
X5254500Y10116107D1*
X5242527Y10095913D1*
X5227607Y10077783D1*
X5210097Y10062143D1*
X5202580Y10057263D1*
X5209830Y10052060D1*
X5227377Y10036460D1*
X5242333Y10018363D1*
X5254353Y9998193D1*
X5263153Y9976430D1*
X5268527Y9953573D1*
X5270350Y9930000D1*
X5268577Y9906757D1*
X5263253Y9883890D1*
X5254500Y9862107D1*
X5242527Y9841913D1*
X5227607Y9823783D1*
X5210097Y9808143D1*
X5202580Y9803263D1*
X5209830Y9798060D1*
X5227377Y9782460D1*
X5242333Y9764363D1*
X5254353Y9744193D1*
X5263153Y9722430D1*
X5268527Y9699573D1*
X5270350Y9676000D1*
X5268577Y9652757D1*
X5263253Y9629890D1*
X5254500Y9608107D1*
X5242527Y9587913D1*
X5227607Y9569783D1*
X5210097Y9554143D1*
X5190407Y9541360D1*
X5168993Y9531733D1*
X5146360Y9525487D1*
X5123040Y9522770D1*
X5099580Y9523643D1*
X5076527Y9528087D1*
X5054423Y9536000D1*
X5033783Y9547193D1*
X5015097Y9561403D1*
X4998800Y9578303D1*
X4990250Y9590427D1*
X4988527Y9587913D1*
X4973607Y9569783D1*
X4956097Y9554143D1*
X4936407Y9541360D1*
X4914993Y9531733D1*
X4892360Y9525487D1*
X4869040Y9522770D1*
X4845580Y9523643D1*
X4822527Y9528087D1*
X4800423Y9536000D1*
X4779783Y9547193D1*
X4761097Y9561403D1*
X4744800Y9578303D1*
X4731270Y9597490D1*
X4720830Y9618520D1*
X4713723Y9640897D1*
X4710113Y9664093D1*
X4710087Y9687573D1*
X4713647Y9710780D1*
X4720707Y9733170D1*
X4731100Y9754220D1*
X4744587Y9773440D1*
X4760847Y9790373D1*
X4777227Y9802887D1*
X4761097Y9815403D1*
X4744800Y9832303D1*
X4731270Y9851490D1*
X4720830Y9872520D1*
X4713723Y9894897D1*
X4710113Y9918093D1*
X4710087Y9941573D1*
X4713647Y9964780D1*
X4720707Y9987170D1*
X4731100Y10008220D1*
X4744587Y10027440D1*
X4747683Y10030663D1*
X4709650Y10030650D1*
Y10337350D1*
X4732983D1*
X4989893Y9844220D2*
X4988527Y9841913D1*
X4973607Y9823783D1*
X4956097Y9808143D1*
X4948580Y9803263D1*
X4955830Y9798060D1*
X4973377Y9782460D1*
X4988333Y9764363D1*
X4989870Y9761783D1*
X4998587Y9773440D1*
X5014847Y9790373D1*
X5031227Y9802887D1*
X5015097Y9815403D1*
X4998800Y9832303D1*
X4990250Y9844427D1*
X4372487Y9826850D2*
X4389920D1*
X4383483Y9834190D1*
X4370223Y9853100D1*
X4360007Y9873810D1*
X4353070Y9895840D1*
X4349577Y9918667D1*
X4349610Y9941763D1*
X4353167Y9964583D1*
X4360167Y9986590D1*
X4370443Y10007273D1*
X4383757Y10026143D1*
X4399797Y10042760D1*
X4418183Y10056737D1*
X4418640Y10056983D1*
X4415777Y10058850D1*
X4409447Y10063350D1*
X4403357Y10068170D1*
X4397520Y10073300D1*
X4391957Y10078720D1*
X4386680Y10084423D1*
X4381707Y10090387D1*
X4377043Y10096603D1*
X4372707Y10103047D1*
X4368710Y10109707D1*
X4365057Y10116563D1*
X4361767Y10123600D1*
X4358840Y10130797D1*
X4356287Y10138133D1*
X4354117Y10145590D1*
X4352333Y10153153D1*
X4350940Y10160793D1*
X4349943Y10168500D1*
X4349343Y10176243D1*
X4349147Y10184010D1*
X4349347Y10191773D1*
X4349947Y10199520D1*
X4350943Y10207223D1*
X4352337Y10214867D1*
X4354120Y10222427D1*
X4356293Y10229883D1*
X4358847Y10237220D1*
X4361773Y10244417D1*
X4365067Y10251453D1*
X4368717Y10258310D1*
X4372717Y10264967D1*
X4377053Y10271413D1*
X4381717Y10277627D1*
X4386693Y10283590D1*
X4391970Y10289290D1*
X4397533Y10294713D1*
X4403370Y10299840D1*
X4409460Y10304660D1*
X4415790Y10309163D1*
X4422347Y10313330D1*
X4429107Y10317157D1*
X4436057Y10320630D1*
X4443173Y10323740D1*
X4450443Y10326480D1*
X4457843Y10328840D1*
X4465357Y10330820D1*
X4472960Y10332407D1*
X4480637Y10333603D1*
X4488363Y10334400D1*
X4496120Y10334800D1*
X4503887D1*
X4511647Y10334400D1*
X4519373Y10333600D1*
X4527050Y10332403D1*
X4534653Y10330817D1*
X4542163Y10328837D1*
X4549563Y10326473D1*
X4556833Y10323733D1*
X4563950Y10320623D1*
X4570900Y10317147D1*
X4577660Y10313320D1*
X4584213Y10309153D1*
X4590543Y10304650D1*
X4596637Y10299830D1*
X4602470Y10294700D1*
X4608033Y10289280D1*
X4613310Y10283577D1*
X4618287Y10277613D1*
X4622947Y10271400D1*
X4627283Y10264953D1*
X4631283Y10258293D1*
X4634933Y10251437D1*
X4638227Y10244400D1*
X4641150Y10237203D1*
X4643703Y10229867D1*
X4645873Y10222410D1*
X4647657Y10214847D1*
X4649050Y10207207D1*
X4650047Y10199503D1*
X4650647Y10191757D1*
X4650847Y10184000D1*
X4650643Y10176227D1*
X4650043Y10168480D1*
X4649047Y10160777D1*
X4647653Y10153133D1*
X4645870Y10145573D1*
X4643697Y10138117D1*
X4641147Y10130780D1*
X4638217Y10123583D1*
X4634923Y10116547D1*
X4631273Y10109693D1*
X4627273Y10103033D1*
X4622937Y10096587D1*
X4618273Y10090373D1*
X4613297Y10084410D1*
X4608020Y10078710D1*
X4602457Y10073287D1*
X4596623Y10068160D1*
X4590530Y10063340D1*
X4584200Y10058840D1*
X4581350Y10057027D1*
X4591620Y10049840D1*
X4608840Y10034450D1*
X4623510Y10016610D1*
X4635283Y9996743D1*
X4643883Y9975310D1*
X4649113Y9952813D1*
X4650850Y9930000D1*
X4649050Y9906760D1*
X4643753Y9884280D1*
X4635090Y9862873D1*
X4623260Y9843037D1*
X4609877Y9826857D1*
X4650853Y9826850D1*
Y9525150D1*
X4349153D1*
Y9826850D1*
X4372487D1*
X4393393Y10077397D2*
D15*
X4606597Y10290603D1*
X4393390Y10290600D2*
X4606600Y10077400D1*
X1388453Y10315083D2*
D26*
X1446530D1*
X1357557Y10251917D2*
X1477427D1*
X1138123Y10188750D2*
X1691893D1*
X1138123Y10125583D2*
X1691893D1*
X1138123Y10062417D2*
X1691893D1*
X1138123Y9999250D2*
X1677630D1*
X1138123Y9936083D2*
X1672800D1*
X1138123Y9872917D2*
X1438737D1*
X1561267D2*
X1672800D1*
X1138123Y9809750D2*
X1384003D1*
X1616000D2*
X1672800D1*
X1138123Y9746583D2*
X1379357D1*
X1620603D2*
X1672800D1*
X1138123Y9683417D2*
X1377807D1*
X1584510D2*
X1672800D1*
X1138123Y9620250D2*
X1377807D1*
X1542217D2*
X1672800D1*
X1347893Y9557083D2*
X1377807D1*
X1331627Y9367583D2*
X1377807D1*
X1138123Y9304417D2*
X1393027D1*
X1138123Y9241250D2*
X1455143D1*
X1138123Y9178083D2*
X1521817D1*
X1679150Y9969947D2*
X1679143Y9579417D1*
X1678240Y9579697D1*
X1670677Y9581507D1*
X1663010Y9582807D1*
X1655273Y9583590D1*
X1647500Y9583850D1*
X1567500D1*
X1561327Y9583687D1*
X1553580Y9583010D1*
X1545897Y9581817D1*
X1538310Y9580113D1*
X1535857Y9579383D1*
X1535830Y9659417D1*
X1540803Y9660720D1*
X1561967Y9671170D1*
X1580593Y9685667D1*
X1595920Y9703617D1*
X1607317Y9724283D1*
X1614323Y9746823D1*
X1616650Y9770310D1*
X1614200Y9793783D1*
X1607073Y9816287D1*
X1595563Y9836893D1*
X1580143Y9854760D1*
X1561440Y9869157D1*
X1540223Y9879497D1*
X1517357Y9885350D1*
X1493783Y9886483D1*
X1470463Y9882847D1*
X1448350Y9874593D1*
X1428353Y9862053D1*
X1411290Y9845747D1*
X1397857Y9826340D1*
X1388607Y9804627D1*
X1383917Y9781493D1*
X1383980Y9757890D1*
X1384567Y9737913D1*
X1384150Y9729947D1*
Y9349710D1*
X1387800Y9326757D1*
X1398243Y9305970D1*
X1406403Y9296330D1*
X1486367Y9216367D1*
X1489983Y9212977D1*
X1505707Y9202337D1*
X1511693Y9193783D1*
X1528843Y9177567D1*
X1537100Y9171750D1*
X1131750Y9171757D1*
X1131743Y9353233D1*
X1139727Y9352410D1*
X1147500Y9352150D1*
X1267500D1*
X1273673Y9352313D1*
X1281420Y9352990D1*
X1289103Y9354183D1*
X1296690Y9355887D1*
X1304147Y9358100D1*
X1311437Y9360803D1*
X1318530Y9363993D1*
X1325390Y9367650D1*
X1331993Y9371760D1*
X1338303Y9376303D1*
X1344297Y9381260D1*
X1349943Y9386610D1*
X1355217Y9392323D1*
X1360097Y9398377D1*
X1364557Y9404747D1*
X1368583Y9411400D1*
X1372153Y9418310D1*
X1375250Y9425443D1*
X1377863Y9432767D1*
X1379977Y9440250D1*
X1381587Y9447857D1*
X1382680Y9455557D1*
X1383257Y9463310D1*
X1383310Y9471087D1*
X1382840Y9478850D1*
X1381853Y9486563D1*
X1380350Y9494193D1*
X1378340Y9501703D1*
X1375827Y9509063D1*
X1372830Y9516240D1*
X1369357Y9523197D1*
X1365423Y9529907D1*
X1361050Y9536337D1*
X1356253Y9542457D1*
X1351060Y9548243D1*
X1345487Y9553670D1*
X1339567Y9558707D1*
X1333317Y9563337D1*
X1326773Y9567540D1*
X1319963Y9571290D1*
X1312913Y9574577D1*
X1305663Y9577383D1*
X1298240Y9579697D1*
X1290677Y9581507D1*
X1283010Y9582807D1*
X1275273Y9583590D1*
X1267500Y9583850D1*
X1147500D1*
X1141327Y9583687D1*
X1133580Y9583010D1*
X1131750Y9582780D1*
X1131743Y10217233D1*
X1139727Y10216410D1*
X1147500Y10216150D1*
X1267500D1*
X1273673Y10216313D1*
X1281420Y10216990D1*
X1289103Y10218183D1*
X1296690Y10219887D1*
X1304147Y10222100D1*
X1311437Y10224803D1*
X1318530Y10227993D1*
X1325390Y10231650D1*
X1331993Y10235760D1*
X1338303Y10240303D1*
X1344297Y10245260D1*
X1349943Y10250610D1*
X1355217Y10256323D1*
X1360097Y10262377D1*
X1364557Y10268747D1*
X1368583Y10275400D1*
X1372153Y10282310D1*
X1375250Y10289443D1*
X1377863Y10296767D1*
X1379977Y10304250D1*
X1381587Y10311857D1*
X1382680Y10319557D1*
X1383257Y10327310D1*
X1383310Y10335087D1*
X1382840Y10342850D1*
X1381853Y10350563D1*
X1380350Y10358193D1*
X1378340Y10365703D1*
X1375827Y10373063D1*
X1373700Y10378250D1*
X1461350Y10378243D1*
X1459750Y10374557D1*
X1457137Y10367233D1*
X1455023Y10359750D1*
X1453413Y10352143D1*
X1452320Y10344443D1*
X1451743Y10336690D1*
X1451690Y10328913D1*
X1452160Y10321150D1*
X1453147Y10313437D1*
X1454650Y10305807D1*
X1456660Y10298297D1*
X1459173Y10290937D1*
X1462170Y10283760D1*
X1465643Y10276803D1*
X1469577Y10270093D1*
X1473950Y10263663D1*
X1478747Y10257543D1*
X1483940Y10251757D1*
X1489513Y10246330D1*
X1495433Y10241293D1*
X1501683Y10236663D1*
X1508227Y10232463D1*
X1515037Y10228710D1*
X1522087Y10225423D1*
X1529337Y10222617D1*
X1536760Y10220303D1*
X1544323Y10218493D1*
X1551990Y10217193D1*
X1559727Y10216410D1*
X1567500Y10216150D1*
X1647500D1*
X1653673Y10216313D1*
X1661420Y10216990D1*
X1669103Y10218183D1*
X1676690Y10219887D1*
X1684147Y10222100D1*
X1691437Y10224803D1*
X1698250Y10227850D1*
Y10025737D1*
X1688960Y10011060D1*
X1681183Y9989107D1*
X1679150Y9969947D1*
X1607500Y10332000D2*
D15*
X1451647D1*
X1607500D2*
Y10216067D1*
Y9583933D2*
Y9468000D1*
X1383353Y10332000D2*
X1207500D1*
Y10216120D1*
X1383353Y9468000D2*
X1207500D1*
Y9583880D2*
Y9352120D1*
D28*
X7049797Y3871400D3*
Y4061400D3*
X7559915Y4006347D3*
X7559918Y3816347D3*
D29*
X3129710Y3810683D3*
X3319710D3*
D28*
X7571053Y3399923D3*
Y3589923D3*
D29*
X3129710Y3565817D3*
X3319710D3*
D28*
X7766353Y3399923D3*
Y3589923D3*
X3309710Y2483253D3*
Y2673253D3*
X7226047Y6345030D3*
X7226053Y6155030D3*
X8680932Y6632743D3*
X8680935Y6442743D3*
D29*
X8286777Y9356841D3*
X8476777Y9356845D3*
D28*
X3631228Y2568937D3*
X3631232Y2378937D3*
X3817080Y2529930D3*
Y2719930D3*
D29*
X8216013Y9578053D3*
X8026013Y9578047D3*
D132*
X8483670Y10034173D3*
X8618017Y10168527D3*
D31*
X7235000Y5373000D3*
D32*
Y5627000D3*
X7489000Y5373000D3*
Y5627000D3*
X7743000Y5373000D3*
Y5627000D3*
X7997000Y5373000D3*
Y5627000D3*
X8251000Y5373000D3*
Y5627000D3*
X8505000Y5373000D3*
Y5627000D3*
D33*
X6135000Y3350000D3*
X6389000Y3430000D3*
X6135000Y3510000D3*
X6389000Y3590000D3*
X6135000Y3670000D3*
X6389000Y3750000D3*
X6135000Y3830000D3*
X6389000Y3910000D3*
X6135000Y3990000D3*
X6389000Y4070000D3*
X6135000Y4150000D3*
X8131000Y3430000D3*
Y3590000D3*
Y3750000D3*
Y3910000D3*
Y4070000D3*
X8385000Y3350000D3*
Y3510000D3*
Y3670000D3*
Y3830000D3*
Y3990000D3*
Y4150000D3*
X7660000Y2625000D3*
X7580000Y2879000D3*
X7500000Y2625000D3*
X7420000Y2879000D3*
X7340000Y2625000D3*
X7260000Y2879000D3*
X7180000Y2625000D3*
X7100000Y2879000D3*
X7020000Y2625000D3*
X6940000Y2879000D3*
X6860000Y2625000D3*
X7580000Y4621000D3*
X7420000D3*
X7260000D3*
X7100000D3*
X6940000D3*
X7660000Y4875000D3*
X7500000D3*
X7340000D3*
X7180000D3*
X7020000D3*
X6860000D3*
X9081000Y7120000D3*
X9335000Y7200000D3*
X9081000Y7280000D3*
X9335000Y7360000D3*
X9081000Y7440000D3*
X9335000Y7520000D3*
X9081000Y7600000D3*
X9335000Y7680000D3*
X9081000Y7760000D3*
X9335000Y7840000D3*
X9081000Y7920000D3*
X9335000Y8000000D3*
X9081000Y8080000D3*
X9335000Y8160000D3*
X9081000Y8240000D3*
X9335000Y8320000D3*
X6525000Y7120000D3*
X6779000Y7200000D3*
Y7360000D3*
Y7520000D3*
Y7680000D3*
Y7840000D3*
Y8000000D3*
Y8160000D3*
Y8320000D3*
X6525000Y7280000D3*
Y7440000D3*
Y7600000D3*
Y7760000D3*
Y7920000D3*
Y8080000D3*
Y8240000D3*
X7330000Y9125000D3*
X7490000D3*
X7650000D3*
X7810000D3*
X7970000D3*
X8130000D3*
X8290000D3*
X8450000D3*
X7410000Y8857000D3*
X7570000D3*
X7730000D3*
X7890000D3*
X8050000D3*
X8210000D3*
X8370000D3*
X8530000D3*
X8450000Y6555000D3*
X7330000D3*
X7490000D3*
X7650000D3*
X7810000D3*
X7970000D3*
X8130000D3*
X8290000D3*
X8530000Y6315000D3*
X7410000D3*
X7570000D3*
X7730000D3*
X7890000D3*
X8050000D3*
X8210000D3*
X8370000D3*
D31*
X5503000Y8629000D3*
D32*
X5757000D3*
X5503000Y8375000D3*
X5757000D3*
X5503000Y8121000D3*
X5757000D3*
X5503000Y7867000D3*
X5757000D3*
X5503000Y7613000D3*
X5757000D3*
X5503000Y7359000D3*
X5757000D3*
X5503000Y7105000D3*
X5757000D3*
X5503000Y6851000D3*
X5757000D3*
D33*
X2470000Y3420000D3*
Y3580000D3*
Y3740000D3*
Y3900000D3*
X2670000Y3500000D3*
Y3660000D3*
Y3820000D3*
Y3980000D3*
X4130000Y3500000D3*
Y3660000D3*
Y3820000D3*
Y3980000D3*
X3930000Y3420000D3*
Y3580000D3*
Y3740000D3*
Y3900000D3*
X3580000Y2870000D3*
X3420000D3*
X3260000D3*
X3100000D3*
X3500000Y3070000D3*
X3340000D3*
X3180000D3*
X3020000D3*
X3580000Y4330000D3*
X3420000D3*
X3260000D3*
X3100000D3*
X3500000Y4530000D3*
X3340000D3*
X3180000D3*
X3020000D3*
D31*
X10327000Y7089000D3*
D32*
X10073000D3*
X10327000Y7343000D3*
X10073000D3*
X10327000Y7597000D3*
X10073000D3*
X10327000Y7851000D3*
X10073000D3*
D31*
X8644000Y9820000D3*
D32*
X8390000D3*
X8136000D3*
D31*
X3417000Y5540000D3*
D32*
X3163000D3*
X10540000Y1697000D3*
Y1951000D3*
Y2205000D3*
Y2459000D3*
Y2713000D3*
Y2967000D3*
Y3221000D3*
Y3475000D3*
Y3729000D3*
Y3983000D3*
Y4237000D3*
Y4491000D3*
Y4745000D3*
Y4999000D3*
Y5253000D3*
Y5507000D3*
Y5761000D3*
Y6015000D3*
Y6269000D3*
Y6523000D3*
D34*
X9925000Y1697000D3*
Y1951000D3*
Y2205000D3*
Y2459000D3*
Y2713000D3*
Y2967000D3*
Y3221000D3*
Y3475000D3*
Y3729000D3*
Y3983000D3*
Y4237000D3*
Y4491000D3*
Y4745000D3*
Y4999000D3*
Y5253000D3*
Y5507000D3*
Y5761000D3*
Y6015000D3*
Y6269000D3*
Y6523000D3*
D35*
X10794000Y1697000D3*
D32*
Y1951000D3*
Y2205000D3*
Y2459000D3*
Y2713000D3*
Y2967000D3*
Y3221000D3*
Y3475000D3*
Y3729000D3*
Y4237000D3*
Y4491000D3*
Y4745000D3*
Y4999000D3*
Y5253000D3*
Y5507000D3*
Y5761000D3*
Y6269000D3*
Y6523000D3*
Y3983000D3*
Y6015000D3*
X10039000Y10590000D3*
X10293000D3*
D36*
X10039000Y10275000D3*
X10293000D3*
D35*
Y10844000D3*
D32*
X10039000D3*
X9785000D3*
X9531000D3*
X9277000D3*
X9023000D3*
X8769000D3*
X8515000D3*
X8261000D3*
X7753000D3*
X7499000D3*
X7245000D3*
X6991000D3*
X6737000D3*
X6483000D3*
X6229000D3*
X5721000D3*
X5467000D3*
X1834331Y1423098D3*
X2088331Y1423106D3*
X2342331Y1423113D3*
X2596331Y1423121D3*
X2850331Y1423128D3*
X3104331Y1423135D3*
X3358331Y1423143D3*
X3612331Y1423150D3*
X3866331Y1423158D3*
X4120331Y1423165D3*
X4374331Y1423173D3*
X4628331Y1423180D3*
X4882331Y1423188D3*
X5136331Y1423195D3*
D35*
X1834338Y1169098D3*
D32*
X2088338Y1169106D3*
X2342338Y1169113D3*
X2596338Y1169121D3*
X2850338Y1169128D3*
X3104338Y1169135D3*
D37*
X1834323Y1688098D3*
X2088323Y1688106D3*
X2342323Y1688113D3*
X2596323Y1688121D3*
X2850323Y1688128D3*
X3104323Y1688135D3*
X3358323Y1688143D3*
X3612323Y1688150D3*
X3866323Y1688158D3*
X4120323Y1688165D3*
X4374323Y1688173D3*
X4628323Y1688180D3*
X4882323Y1688188D3*
X5136323Y1688195D3*
D32*
X3358338Y1169143D3*
X3612338Y1169150D3*
X3866338Y1169158D3*
X4374338Y1169173D3*
X4628338Y1169180D3*
X4882338Y1169188D3*
X5136338Y1169195D3*
X4120338Y1169165D3*
D31*
X8920000Y5393000D3*
D32*
Y5647000D3*
D39*
X1245000Y8145000D3*
Y8295000D3*
Y8545000D3*
Y8695000D3*
D38*
X1270000Y8345000D3*
Y8395000D3*
Y8445000D3*
D40*
X5434000Y6337000D3*
D41*
X5180000D3*
X4926000D3*
Y6083000D3*
X5180000D3*
X5434000D3*
D31*
X4840000Y9172823D3*
D32*
Y8918823D3*
D40*
X4863000Y10184000D3*
D41*
Y9930000D3*
Y9676000D3*
X5117000D3*
Y9930000D3*
Y10184000D3*
D40*
X4810163Y5434117D3*
D41*
X4556163D3*
X4302163D3*
Y5180117D3*
X4556163D3*
X4810163D3*
D31*
X4500005Y9676000D3*
D32*
X4500000Y9930000D3*
X4499995Y10184000D3*
D40*
X5963557Y5608587D3*
D41*
X5709557D3*
X5455557D3*
Y5354587D3*
X5709557D3*
X5963557D3*
D40*
X4433997Y9197249D3*
D41*
X4179997Y9197243D3*
X3925997Y9197238D3*
X3926003Y8943238D3*
X4180003Y8943243D3*
X4434003Y8943249D3*
D40*
X4524000Y6337000D3*
D41*
X4270000D3*
X4016000D3*
Y6083000D3*
X4270000D3*
X4524000D3*
D40*
X3540481Y9318229D3*
D41*
X3286481Y9318223D3*
X3032481Y9318218D3*
X3032486Y9064218D3*
X3286486Y9064223D3*
X3540486Y9064229D3*
D40*
X3574000Y6337000D3*
D41*
X3320000D3*
X3066000D3*
Y6083000D3*
X3320000D3*
X3574000D3*
D44*
X1607500Y10332000D3*
Y9468000D3*
D45*
X1207500Y10332000D3*
Y9468000D3*
D40*
X2614000Y6337000D3*
D41*
X2360000D3*
X2106000D3*
Y6083000D3*
X2360000D3*
X2614000D3*
D40*
X1816028Y6870346D3*
D41*
X1816023Y7124346D3*
X1816019Y7378346D3*
X1562019Y7378341D3*
X1562023Y7124341D3*
X1562028Y6870341D3*
D28*
X2759597Y4622600D3*
Y4812600D3*
D132*
X7148085Y3087535D3*
X7282435Y3221885D3*
D31*
X3430733Y2230163D3*
D32*
X3938733D3*
D31*
X8942753Y2297653D3*
D32*
Y2805653D3*
D31*
X7971747Y10370979D3*
D32*
X8479747Y10370994D3*
M02*
