G04 DipTrace 4.2.0.0*
G04 Bottom Paste.gbr*
%MOMM*%
G04 #@! TF.FileFunction,Paste,Bot*
G04 #@! TF.Part,Single*
%AMOUTLINE8*
4,1,4,
0.07073,-0.91924,
-0.91924,0.07069,
-0.07073,0.91924,
0.91924,-0.07069,
0.07073,-0.91924,
0*%
%ADD101R,3.9X0.15*%
%ADD103R,3.4X0.15*%
%ADD105O,1.6X6.9*%
%ADD107O,1.6X7.9*%
%ADD111O,13.9X1.6*%
%ADD120R,1.2X1.4*%
%ADD122R,1.4X1.2*%
%ADD134OUTLINE8*%
%FSLAX35Y35*%
G04*
G71*
G90*
G75*
G01*
G04 BotPaste*
%LPD*%
D122*
X7049797Y3871400D3*
Y4061400D3*
X7559915Y4006347D3*
X7559918Y3816347D3*
D120*
X3129710Y3810683D3*
X3319710D3*
D122*
X7571053Y3399923D3*
Y3589923D3*
D120*
X3129710Y3565817D3*
X3319710D3*
D122*
X7766353Y3399923D3*
Y3589923D3*
X3309710Y2483253D3*
Y2673253D3*
X7226047Y6345030D3*
X7226053Y6155030D3*
X8680932Y6632743D3*
X8680935Y6442743D3*
D120*
X8286777Y9356841D3*
X8476777Y9356845D3*
D122*
X3631228Y2568937D3*
X3631232Y2378937D3*
X3817080Y2529930D3*
Y2719930D3*
D120*
X8216013Y9578053D3*
X8026013Y9578047D3*
D134*
X8483670Y10034173D3*
X8618017Y10168527D3*
D111*
X9925000Y1697000D3*
Y1951000D3*
Y2205000D3*
Y2459000D3*
Y2713000D3*
Y2967000D3*
Y3221000D3*
Y3475000D3*
Y3729000D3*
Y3983000D3*
Y4237000D3*
Y4491000D3*
Y4745000D3*
Y4999000D3*
Y5253000D3*
Y5507000D3*
Y5761000D3*
Y6015000D3*
Y6269000D3*
Y6523000D3*
D107*
X10039000Y10275000D3*
X10293000D3*
D105*
X1834323Y1688098D3*
X2088323Y1688106D3*
X2342323Y1688113D3*
X2596323Y1688121D3*
X2850323Y1688128D3*
X3104323Y1688135D3*
X3358323Y1688143D3*
X3612323Y1688150D3*
X3866323Y1688158D3*
X4120323Y1688165D3*
X4374323Y1688173D3*
X4628323Y1688180D3*
X4882323Y1688188D3*
X5136323Y1688195D3*
D101*
X1245000Y8145000D3*
Y8295000D3*
Y8545000D3*
Y8695000D3*
D103*
X1270000Y8345000D3*
Y8395000D3*
Y8445000D3*
D122*
X2759597Y4622600D3*
Y4812600D3*
D134*
X7148085Y3087535D3*
X7282435Y3221885D3*
M02*
