M48
METRIC,0000.00
T01C0.486
T02C0.6
T03C0.9
T04C1.1
T05C1.14
T06C1.6
T07C1.7
T08C3.2
%
T01
X+003120Y+010300
X+003120Y+010140
X+003120Y+009970
X+003400Y+009900
X+003570Y+009900
X+003570Y+010130
X+003570Y+010390
X+003400Y+010390
X+002501Y+010092
X+002649Y+009727
X+002130Y+009390
X+001860Y+009210
X+001600Y+009270
X+001420Y+009220
X+001500Y+009770
X+001280Y+009910
X+001910Y+009760
X+002030Y+009860
X+002030Y+010080
X+001830Y+010560
X+001710Y+010770
X+001730Y+008710
X+001910Y+008540
X+002100Y+008420
X+002065Y+008145
X+001705Y+008395
X+002815Y+008888
X+003040Y+008870
X+003430Y+008815
X+002940Y+008440
X+003240Y+007980
X+003539Y+007835
X+004550Y+008240
X+005134Y+008336
X+005130Y+009149
X+005605Y+009716
X+006050Y+010090
X+006151Y+009177
X+007197Y+008616
X+007988Y+008209
X+008152Y+008052
X+008181Y+007927
X+008031Y+007574
X+008168Y+007471
X+007818Y+007659
X+007681Y+007496
X+007675Y+007306
X+006421Y+007006
X+006244Y+007003
X+006100Y+007010
X+006848Y+005712
X+006537Y+005401
X+006265Y+004502
X+006891Y+004020
X+007050Y+004061
X+007070Y+003870
X+007279Y+003908
X+007556Y+003830
X+007587Y+004060
X+007588Y+003403
X+007070Y+003640
X+007980Y+002920
X+007900Y+002680
X+008121Y+002047
X+007766Y+001843
X+007584Y+001752
X+006665Y+001590
X+006066Y+002042
X+004998Y+002298
X+004640Y+002298
X+003817Y+002720
X+003467Y+002697
X+003554Y+003446
X+003455Y+003668
X+003488Y+003921
X+003776Y+004331
X+004026Y+004305
X+004246Y+004421
X+004823Y+004645
X+005102Y+004598
X+004965Y+004915
X+005352Y+004116
X+004270Y+003190
X+002465Y+002230
X+002217Y+002196
X+002130Y+003410
X+001920Y+003620
X+001830Y+003480
X+001610Y+003941
X+001342Y+004248
X+002325Y+004078
X+003289Y+005160
X+004551Y+005824
X+005030Y+005828
X+002500Y+006765
X+007808Y+004794
X+008271Y+004923
X+008366Y+004781
X+008762Y+004902
X+008896Y+005127
X+009170Y+005507
X+009171Y+005761
X+009180Y+005960
X+009200Y+006269
X+009286Y+006747
X+008829Y+006595
X+008592Y+006142
X+008672Y+004124
X+008584Y+003744
X+008550Y+003450
X+008643Y+001926
X+010208Y+003970
X+009129Y+008745
X+008757Y+009611
X+009316Y+009700
X+008577Y+010562
T02
X+001568Y+010332G85X+001648Y+010332
X+001148Y+010332G85X+001268Y+010332
X+001148Y+009468G85X+001268Y+009468
X+001568Y+009468G85X+001648Y+009468
T03
X+006135Y+003350
X+006135Y+003510
X+006135Y+003670
X+006135Y+003830
X+006135Y+003990
X+006135Y+004150
X+006389Y+004070
X+006389Y+003910
X+006389Y+003750
X+006389Y+003590
X+006389Y+003430
X+006940Y+002879
X+007100Y+002879
X+007260Y+002879
X+007420Y+002879
X+007580Y+002879
X+007660Y+002625
X+007500Y+002625
X+007340Y+002625
X+007180Y+002625
X+007020Y+002625
X+006860Y+002625
X+008131Y+003430
X+008131Y+003590
X+008131Y+003750
X+008131Y+003910
X+008131Y+004070
X+008385Y+004150
X+008385Y+003990
X+008385Y+003830
X+008385Y+003670
X+008385Y+003510
X+008385Y+003350
X+007580Y+004621
X+007420Y+004621
X+007260Y+004621
X+007100Y+004621
X+006940Y+004621
X+006860Y+004875
X+007020Y+004875
X+007180Y+004875
X+007340Y+004875
X+007500Y+004875
X+007660Y+004875
X+007730Y+006315
X+007570Y+006315
X+007410Y+006315
X+007330Y+006555
X+007490Y+006555
X+007650Y+006555
X+007810Y+006555
X+007970Y+006555
X+008130Y+006555
X+008290Y+006555
X+008450Y+006555
X+008530Y+006315
X+008370Y+006315
X+008210Y+006315
X+008050Y+006315
X+007890Y+006315
X+006779Y+007200
X+006779Y+007360
X+006779Y+007520
X+006779Y+007680
X+006779Y+007840
X+006779Y+008000
X+006779Y+008160
X+006779Y+008320
X+006525Y+008240
X+006525Y+008080
X+006525Y+007920
X+006525Y+007760
X+006525Y+007600
X+006525Y+007440
X+006525Y+007280
X+006525Y+007120
X+007410Y+008857
X+007570Y+008857
X+007730Y+008857
X+007890Y+008857
X+008050Y+008857
X+008210Y+008857
X+008370Y+008857
X+008530Y+008857
X+008450Y+009125
X+008290Y+009125
X+008130Y+009125
X+007970Y+009125
X+007810Y+009125
X+007650Y+009125
X+007490Y+009125
X+007330Y+009125
X+009081Y+008240
X+009081Y+008080
X+009081Y+007920
X+009081Y+007760
X+009081Y+007600
X+009081Y+007440
X+009081Y+007280
X+009081Y+007120
X+009335Y+007200
X+009335Y+007360
X+009335Y+007520
X+009335Y+007680
X+009335Y+007840
X+009335Y+008000
X+009335Y+008160
X+009335Y+008320
X+004130Y+003980
X+004130Y+003820
X+004130Y+003660
X+004130Y+003500
X+003930Y+003420
X+003930Y+003580
X+003930Y+003740
X+003930Y+003900
X+003580Y+004330
X+003420Y+004330
X+003260Y+004330
X+003100Y+004330
X+003180Y+004530
X+003340Y+004530
X+003500Y+004530
X+003020Y+004530
X+002670Y+003980
X+002670Y+003820
X+002670Y+003660
X+002670Y+003500
X+002470Y+003420
X+002470Y+003580
X+002470Y+003740
X+002470Y+003900
X+003020Y+003070
X+003180Y+003070
X+003340Y+003070
X+003500Y+003070
X+003580Y+002870
X+003420Y+002870
X+003260Y+002870
X+003100Y+002870
T04
X+007235Y+005373
X+007235Y+005627
X+007489Y+005627
X+007489Y+005373
X+007743Y+005373
X+007743Y+005627
X+007997Y+005627
X+007997Y+005373
X+008251Y+005373
X+008251Y+005627
X+008505Y+005627
X+008505Y+005373
X+008920Y+005393
X+008920Y+005647
X+010540Y+005761
X+010540Y+005507
X+010794Y+005507
X+010794Y+005761
X+010794Y+006015
X+010540Y+006015
X+010540Y+006269
X+010540Y+006523
X+010794Y+006523
X+010794Y+006269
X+010327Y+007089
X+010073Y+007089
X+010073Y+007343
X+010327Y+007343
X+010327Y+007597
X+010073Y+007597
X+010073Y+007851
X+010327Y+007851
X+008644Y+009820
X+008390Y+009820
X+008136Y+009820
X+007972Y+010371
X+008480Y+010371
X+008515Y+010844
X+008769Y+010844
X+009023Y+010844
X+009277Y+010844
X+009531Y+010844
X+009785Y+010844
X+010039Y+010844
X+010039Y+010590
X+010293Y+010590
X+010293Y+010844
X+008261Y+010844
X+007753Y+010844
X+007499Y+010844
X+007245Y+010844
X+006991Y+010844
X+006737Y+010844
X+006483Y+010844
X+006229Y+010844
X+005721Y+010844
X+005467Y+010844
X+004500Y+010184
X+004500Y+009930
X+004500Y+009676
X+004840Y+009173
X+004840Y+008919
X+005503Y+008629
X+005757Y+008629
X+005757Y+008375
X+005503Y+008375
X+005503Y+008121
X+005757Y+008121
X+005757Y+007867
X+005503Y+007867
X+005503Y+007613
X+005503Y+007359
X+005757Y+007359
X+005757Y+007613
X+005757Y+007105
X+005757Y+006851
X+005503Y+006851
X+005503Y+007105
X+003417Y+005540
X+003163Y+005540
X+003431Y+002230
X+003939Y+002230
X+003866Y+001423
X+003612Y+001423
X+003358Y+001423
X+003104Y+001423
X+003104Y+001169
X+003358Y+001169
X+003612Y+001169
X+003866Y+001169
X+004120Y+001169
X+004120Y+001423
X+004374Y+001423
X+004628Y+001423
X+004628Y+001169
X+004374Y+001169
X+004882Y+001169
X+005136Y+001169
X+005136Y+001423
X+004882Y+001423
X+002850Y+001423
X+002596Y+001423
X+002342Y+001423
X+002342Y+001169
X+002596Y+001169
X+002850Y+001169
X+002088Y+001169
X+001834Y+001169
X+001834Y+001423
X+002088Y+001423
X+008943Y+002298
X+008943Y+002806
X+010540Y+002713
X+010794Y+002713
X+010794Y+002459
X+010794Y+002205
X+010540Y+002205
X+010540Y+002459
X+010540Y+002967
X+010540Y+003221
X+010794Y+003221
X+010794Y+003475
X+010540Y+003475
X+010540Y+003729
X+010540Y+003983
X+010540Y+004237
X+010540Y+004491
X+010794Y+004491
X+010794Y+004237
X+010794Y+003983
X+010794Y+003729
X+010794Y+002967
X+010794Y+001951
X+010794Y+001697
X+010540Y+001697
X+010540Y+001951
X+010540Y+004745
X+010540Y+004999
X+010540Y+005253
X+010794Y+005253
X+010794Y+004999
X+010794Y+004745
T05
X+005434Y+006337
X+005180Y+006337
X+004926Y+006337
X+004926Y+006083
X+005180Y+006083
X+005434Y+006083
X+005456Y+005609
X+005710Y+005609
X+005964Y+005609
X+005964Y+005355
X+005710Y+005355
X+005456Y+005355
X+004810Y+005434
X+004556Y+005434
X+004302Y+005434
X+004302Y+005180
X+004556Y+005180
X+004810Y+005180
X+004524Y+006083
X+004524Y+006337
X+004270Y+006337
X+004016Y+006337
X+004016Y+006083
X+004270Y+006083
X+003574Y+006083
X+003574Y+006337
X+003320Y+006337
X+003066Y+006337
X+003066Y+006083
X+003320Y+006083
X+002614Y+006083
X+002614Y+006337
X+002360Y+006337
X+002106Y+006337
X+002106Y+006083
X+002360Y+006083
X+001816Y+006870
X+001816Y+007124
X+001562Y+007124
X+001562Y+007378
X+001816Y+007378
X+001562Y+006870
X+003032Y+009064
X+003032Y+009318
X+003286Y+009318
X+003540Y+009318
X+003540Y+009064
X+003286Y+009064
X+003926Y+008943
X+003926Y+009197
X+004180Y+009197
X+004434Y+009197
X+004434Y+008943
X+004180Y+008943
X+004863Y+009676
X+005117Y+009676
X+005117Y+009930
X+005117Y+010184
X+004863Y+010184
X+004863Y+009930
T06
X+006260Y+003030
X+008260Y+004470
X+008930Y+006220
X+006930Y+009220
T07
X+002750Y+004250
X+003850Y+003150
T08
X+010750Y+010750
X+010750Y+001250
X+001250Y+001250
X+001250Y+010750
T00
M30
