G04 DipTrace 4.2.0.0*
G04 Top Mask.gbr*
%MOMM*%
G04 #@! TF.FileFunction,Soldermask,Top*
G04 #@! TF.Part,Single*
%AMOUTLINE1*
4,1,4,
-0.07071,1.06066,
1.06066,-0.07071,
0.07071,-1.06066,
-1.06066,0.07071,
-0.07071,1.06066,
0*%
%AMOUTLINE4*
4,1,4,
1.06066,0.07073,
-0.07069,-1.06066,
-1.06066,-0.07073,
0.07069,1.06066,
1.06066,0.07073,
0*%
%ADD59C,3.2*%
%ADD60C,1.6*%
%ADD61C,1.7*%
%ADD66R,0.5X1.4*%
%ADD68R,0.7X1.4*%
%ADD70R,1.2X0.7*%
%ADD72R,2.25X3.35*%
%ADD74R,2.25X1.05*%
%ADD76R,0.7X2.25*%
%ADD78R,0.6X1.9*%
%ADD80R,1.9X0.6*%
%ADD82R,1.8X0.6*%
%ADD84R,0.6X1.8*%
%ADD86R,1.1X1.7*%
%ADD88O,2.3X1.1*%
%ADD90O,1.9X1.1*%
%ADD92R,1.25X0.7*%
%ADD94R,1.25X0.4*%
%ADD96C,1.85*%
%ADD98R,1.85X1.85*%
%ADD100R,4.1X0.35*%
%ADD102R,3.6X0.35*%
%ADD108R,1.6706X1.6706*%
%ADD112C,1.3*%
%ADD114C,1.8*%
%ADD116R,1.8X1.8*%
%ADD118R,1.3X1.9*%
%ADD119R,1.4X1.6*%
%ADD121R,1.6X1.4*%
%ADD127OUTLINE1*%
%ADD130OUTLINE4*%
%FSLAX35Y35*%
G04*
G71*
G90*
G75*
G01*
G04 TopMask*
%LPD*%
D127*
X9382635Y2762625D3*
X9248285Y2628275D3*
D130*
X9458347Y2966660D3*
X9323993Y3101007D3*
D119*
X4855000Y6890000D3*
X4665000D3*
X2665000Y9560000D3*
X2475000D3*
X2755000Y10770000D3*
X2565000D3*
D121*
X3320000Y8815000D3*
Y8625000D3*
D118*
X2295000Y10580004D3*
X1965000Y10579996D3*
D59*
X10750000Y10750000D3*
Y1250000D3*
X1250000Y10750000D3*
Y1250000D3*
D116*
X7235000Y5373000D3*
D114*
Y5627000D3*
X7489000Y5373000D3*
Y5627000D3*
X7743000Y5373000D3*
Y5627000D3*
X7997000Y5373000D3*
Y5627000D3*
X8251000Y5373000D3*
Y5627000D3*
X8505000Y5373000D3*
Y5627000D3*
D112*
X6135000Y3350000D3*
X6389000Y3430000D3*
X6135000Y3510000D3*
X6389000Y3590000D3*
X6135000Y3670000D3*
X6389000Y3750000D3*
X6135000Y3830000D3*
X6389000Y3910000D3*
X6135000Y3990000D3*
X6389000Y4070000D3*
X6135000Y4150000D3*
X8131000Y3430000D3*
Y3590000D3*
Y3750000D3*
Y3910000D3*
Y4070000D3*
X8385000Y3350000D3*
Y3510000D3*
Y3670000D3*
Y3830000D3*
Y3990000D3*
Y4150000D3*
X7660000Y2625000D3*
X7580000Y2879000D3*
X7500000Y2625000D3*
X7420000Y2879000D3*
X7340000Y2625000D3*
X7260000Y2879000D3*
X7180000Y2625000D3*
X7100000Y2879000D3*
X7020000Y2625000D3*
X6940000Y2879000D3*
X6860000Y2625000D3*
X7580000Y4621000D3*
X7420000D3*
X7260000D3*
X7100000D3*
X6940000D3*
X7660000Y4875000D3*
X7500000D3*
X7340000D3*
X7180000D3*
X7020000D3*
X6860000D3*
D60*
X6260000Y3030000D3*
X8260000Y4470000D3*
D112*
X9081000Y7120000D3*
X9335000Y7200000D3*
X9081000Y7280000D3*
X9335000Y7360000D3*
X9081000Y7440000D3*
X9335000Y7520000D3*
X9081000Y7600000D3*
X9335000Y7680000D3*
X9081000Y7760000D3*
X9335000Y7840000D3*
X9081000Y7920000D3*
X9335000Y8000000D3*
X9081000Y8080000D3*
X9335000Y8160000D3*
X9081000Y8240000D3*
X9335000Y8320000D3*
X6525000Y7120000D3*
X6779000Y7200000D3*
Y7360000D3*
Y7520000D3*
Y7680000D3*
Y7840000D3*
Y8000000D3*
Y8160000D3*
Y8320000D3*
X6525000Y7280000D3*
Y7440000D3*
Y7600000D3*
Y7760000D3*
Y7920000D3*
Y8080000D3*
Y8240000D3*
X7330000Y9125000D3*
X7490000D3*
X7650000D3*
X7810000D3*
X7970000D3*
X8130000D3*
X8290000D3*
X8450000D3*
X7410000Y8857000D3*
X7570000D3*
X7730000D3*
X7890000D3*
X8050000D3*
X8210000D3*
X8370000D3*
X8530000D3*
X8450000Y6555000D3*
X7330000D3*
X7490000D3*
X7650000D3*
X7810000D3*
X7970000D3*
X8130000D3*
X8290000D3*
X8530000Y6315000D3*
X7410000D3*
X7570000D3*
X7730000D3*
X7890000D3*
X8050000D3*
X8210000D3*
X8370000D3*
D60*
X8930000Y6220000D3*
X6930000Y9220000D3*
D116*
X5503000Y8629000D3*
D114*
X5757000D3*
X5503000Y8375000D3*
X5757000D3*
X5503000Y8121000D3*
X5757000D3*
X5503000Y7867000D3*
X5757000D3*
X5503000Y7613000D3*
X5757000D3*
X5503000Y7359000D3*
X5757000D3*
X5503000Y7105000D3*
X5757000D3*
X5503000Y6851000D3*
X5757000D3*
D112*
X2470000Y3420000D3*
Y3580000D3*
Y3740000D3*
Y3900000D3*
X2670000Y3500000D3*
Y3660000D3*
Y3820000D3*
Y3980000D3*
X4130000Y3500000D3*
Y3660000D3*
Y3820000D3*
Y3980000D3*
X3930000Y3420000D3*
Y3580000D3*
Y3740000D3*
Y3900000D3*
X3580000Y2870000D3*
X3420000D3*
X3260000D3*
X3100000D3*
X3500000Y3070000D3*
X3340000D3*
X3180000D3*
X3020000D3*
X3580000Y4330000D3*
X3420000D3*
X3260000D3*
X3100000D3*
X3500000Y4530000D3*
X3340000D3*
X3180000D3*
X3020000D3*
D61*
X2750000Y4250000D3*
X3850000Y3150000D3*
D116*
X10327000Y7089000D3*
D114*
X10073000D3*
X10327000Y7343000D3*
X10073000D3*
X10327000Y7597000D3*
X10073000D3*
X10327000Y7851000D3*
X10073000D3*
D116*
X8644000Y9820000D3*
D114*
X8390000D3*
X8136000D3*
D116*
X3417000Y5540000D3*
D114*
X3163000D3*
X10540000Y1697000D3*
Y1951000D3*
Y2205000D3*
Y2459000D3*
Y2713000D3*
Y2967000D3*
Y3221000D3*
Y3475000D3*
Y3729000D3*
Y3983000D3*
Y4237000D3*
Y4491000D3*
Y4745000D3*
Y4999000D3*
Y5253000D3*
Y5507000D3*
Y5761000D3*
Y6015000D3*
Y6269000D3*
Y6523000D3*
D108*
X10794000Y1697000D3*
D114*
Y1951000D3*
Y2205000D3*
Y2459000D3*
Y2713000D3*
Y2967000D3*
Y3221000D3*
Y3475000D3*
Y3729000D3*
Y4237000D3*
Y4491000D3*
Y4745000D3*
Y4999000D3*
Y5253000D3*
Y5507000D3*
Y5761000D3*
Y6269000D3*
Y6523000D3*
Y3983000D3*
Y6015000D3*
X10039000Y10590000D3*
X10293000D3*
D108*
Y10844000D3*
D114*
X10039000D3*
X9785000D3*
X9531000D3*
X9277000D3*
X9023000D3*
X8769000D3*
X8515000D3*
X8261000D3*
X7753000D3*
X7499000D3*
X7245000D3*
X6991000D3*
X6737000D3*
X6483000D3*
X6229000D3*
X5721000D3*
X5467000D3*
X1834331Y1423098D3*
X2088331Y1423106D3*
X2342331Y1423113D3*
X2596331Y1423121D3*
X2850331Y1423128D3*
X3104331Y1423135D3*
X3358331Y1423143D3*
X3612331Y1423150D3*
X3866331Y1423158D3*
X4120331Y1423165D3*
X4374331Y1423173D3*
X4628331Y1423180D3*
X4882331Y1423188D3*
X5136331Y1423195D3*
D108*
X1834338Y1169098D3*
D114*
X2088338Y1169106D3*
X2342338Y1169113D3*
X2596338Y1169121D3*
X2850338Y1169128D3*
X3104338Y1169135D3*
X3358338Y1169143D3*
X3612338Y1169150D3*
X3866338Y1169158D3*
X4374338Y1169173D3*
X4628338Y1169180D3*
X4882338Y1169188D3*
X5136338Y1169195D3*
X4120338Y1169165D3*
D116*
X8920000Y5393000D3*
D114*
Y5647000D3*
D102*
X1270000Y8395000D3*
Y8445000D3*
Y8495000D3*
D100*
X1245000Y8145000D3*
Y8295000D3*
Y8545000D3*
Y8695000D3*
D98*
X5434000Y6337000D3*
D96*
X5180000D3*
X4926000D3*
Y6083000D3*
X5180000D3*
X5434000D3*
D116*
X4840000Y9172823D3*
D114*
Y8918823D3*
D98*
X4863000Y10184000D3*
D96*
Y9930000D3*
Y9676000D3*
X5117000D3*
Y9930000D3*
Y10184000D3*
D98*
X4810163Y5434117D3*
D96*
X4556163D3*
X4302163D3*
Y5180117D3*
X4556163D3*
X4810163D3*
D116*
X4500005Y9676000D3*
D114*
X4500000Y9930000D3*
X4499995Y10184000D3*
D98*
X5963557Y5608587D3*
D96*
X5709557D3*
X5455557D3*
Y5354587D3*
X5709557D3*
X5963557D3*
D98*
X4433997Y9197249D3*
D96*
X4179997Y9197243D3*
X3925997Y9197238D3*
X3926003Y8943238D3*
X4180003Y8943243D3*
X4434003Y8943249D3*
D98*
X4524000Y6337000D3*
D96*
X4270000D3*
X4016000D3*
Y6083000D3*
X4270000D3*
X4524000D3*
D98*
X3540481Y9318229D3*
D96*
X3286481Y9318223D3*
X3032481Y9318218D3*
X3032486Y9064218D3*
X3286486Y9064223D3*
X3540486Y9064229D3*
D98*
X3574000Y6337000D3*
D96*
X3320000D3*
X3066000D3*
Y6083000D3*
X3320000D3*
X3574000D3*
D94*
X1665000Y10075000D3*
Y10025000D3*
Y9975000D3*
Y9925000D3*
Y9875000D3*
Y9825000D3*
Y9775000D3*
Y9725000D3*
D92*
Y10140000D3*
Y9660000D3*
Y10220000D3*
Y9580000D3*
D90*
X1607500Y10332000D3*
Y9468000D3*
D88*
X1207500Y10332000D3*
Y9468000D3*
D98*
X2614000Y6337000D3*
D96*
X2360000D3*
X2106000D3*
Y6083000D3*
X2360000D3*
X2614000D3*
D98*
X1816028Y6870346D3*
D96*
X1816023Y7124346D3*
X1816019Y7378346D3*
X1562019Y7378341D3*
X1562023Y7124341D3*
X1562028Y6870341D3*
D119*
X8393017Y10107530D3*
X8583017D3*
D121*
X4840000Y8620000D3*
Y8430000D3*
D119*
X2007247Y10280000D3*
X2197247D3*
X2025000Y9560000D3*
X2215000D3*
D86*
X4550006Y7369997D3*
X4549994Y8009997D3*
X4929994Y8010003D3*
X4930006Y7370003D3*
D84*
X3018000Y3284000D3*
X3098000D3*
X3178000D3*
X3258000D3*
X3338000D3*
X3418000D3*
X3498000D3*
X3578000D3*
D82*
X3718000Y3424000D3*
Y3504000D3*
Y3584000D3*
Y3664000D3*
Y3744000D3*
Y3824000D3*
Y3904000D3*
Y3984000D3*
D84*
X3578000Y4124000D3*
X3498000D3*
X3418000D3*
X3338000D3*
X3258000D3*
X3178000D3*
X3098000D3*
X3018000D3*
D82*
X2878000Y3984000D3*
Y3904000D3*
Y3824000D3*
Y3744000D3*
Y3664000D3*
Y3584000D3*
Y3504000D3*
Y3424000D3*
D80*
X8706000Y7118000D3*
Y7198000D3*
Y7278000D3*
Y7358000D3*
Y7438000D3*
Y7518000D3*
Y7598000D3*
Y7678000D3*
Y7758000D3*
Y7838000D3*
Y7918000D3*
Y7998000D3*
Y8078000D3*
Y8158000D3*
Y8238000D3*
Y8318000D3*
D78*
X8526000Y8498000D3*
X8446000D3*
X8366000D3*
X8286000D3*
X8206000D3*
X8126000D3*
X8046000D3*
X7966000D3*
X7886000D3*
X7806000D3*
X7726000D3*
X7646000D3*
X7566000D3*
X7486000D3*
X7406000D3*
X7326000D3*
D80*
X7146000Y8318000D3*
Y8238000D3*
Y8158000D3*
Y8078000D3*
Y7998000D3*
Y7918000D3*
Y7838000D3*
Y7758000D3*
Y7678000D3*
Y7598000D3*
Y7518000D3*
Y7438000D3*
Y7358000D3*
Y7278000D3*
Y7198000D3*
Y7118000D3*
D78*
X7326000Y6938000D3*
X7406000D3*
X7486000D3*
X7566000D3*
X7646000D3*
X7726000D3*
X7806000D3*
X7886000D3*
X7966000D3*
X8046000D3*
X8126000D3*
X8206000D3*
X8286000D3*
X8366000D3*
X8446000D3*
X8526000D3*
X6860000Y3180000D3*
X6940000D3*
X7020000D3*
X7100000D3*
X7180000D3*
X7260000D3*
X7340000D3*
X7420000D3*
X7500000D3*
X7580000D3*
X7660000D3*
D80*
X7830000Y3350000D3*
Y3430000D3*
Y3510000D3*
Y3590000D3*
Y3670000D3*
Y3750000D3*
Y3830000D3*
Y3910000D3*
Y3990000D3*
Y4070000D3*
Y4150000D3*
D78*
X7660000Y4320000D3*
X7580000D3*
X7500000D3*
X7420000D3*
X7340000D3*
X7260000D3*
X7180000D3*
X7100000D3*
X7020000D3*
X6940000D3*
X6860000D3*
D80*
X6690000Y4150000D3*
Y4070000D3*
Y3990000D3*
Y3910000D3*
Y3830000D3*
Y3750000D3*
Y3670000D3*
Y3590000D3*
Y3510000D3*
Y3430000D3*
Y3350000D3*
D76*
X4335500Y8210000D3*
X4208500D3*
X4081500D3*
X3954500D3*
X3827500D3*
X3700500D3*
X3573500D3*
X3446500D3*
X3319500D3*
X3192500D3*
X3065500D3*
X2938500D3*
X2811500D3*
X2684500D3*
Y7130000D3*
X2811500D3*
X2938500D3*
X3065500D3*
X3192500D3*
X3319500D3*
X3446500D3*
X3573500D3*
X3700500D3*
X3827500D3*
X3954500D3*
X4081500D3*
X4208500D3*
X4335500D3*
D74*
X2810000Y10360000D3*
Y10130000D3*
Y9900000D3*
D72*
X3390000Y10130000D3*
D70*
X2215000Y9985000D3*
Y9890000D3*
Y9795000D3*
X2485000D3*
Y9890000D3*
Y9985000D3*
D116*
X3430733Y2230163D3*
D114*
X3938733D3*
D116*
X8942753Y2297653D3*
D114*
Y2805653D3*
D116*
X7971747Y10370979D3*
D114*
X8479747Y10370994D3*
D68*
X2830000Y8620000D3*
X2630000D3*
D66*
X2730000D3*
M02*
