G04 DipTrace 4.2.0.0*
G04 Top.gbr*
%MOMM*%
G04 #@! TF.FileFunction,Copper,L1,Top*
G04 #@! TF.Part,Single*
%AMOUTLINE0*
4,1,4,
-0.07071,0.98995,
0.98995,-0.07071,
0.07071,-0.98995,
-0.98995,0.07071,
-0.07071,0.98995,
0*%
%AMOUTLINE3*
4,1,4,
0.98995,0.07073,
-0.07069,-0.98995,
-0.98995,-0.07073,
0.07069,0.98995,
0.98995,0.07073,
0*%
G04 #@! TA.AperFunction,Conductor*
%ADD10C,0.25*%
G04 #@! TA.AperFunction,CopperBalancing*
%ADD15C,0.33*%
G04 #@! TA.AperFunction,Conductor*
%ADD16C,0.3*%
%ADD17C,0.1*%
%ADD18C,1.0*%
%ADD19C,0.95*%
%ADD20C,0.5*%
%ADD21C,0.4*%
%ADD24C,0.2*%
%ADD25C,0.6*%
G04 #@! TA.AperFunction,CopperBalancing*
%ADD26C,0.635*%
%ADD28R,1.5X1.3*%
%ADD29R,1.3X1.5*%
%ADD30R,1.2X1.8*%
G04 #@! TA.AperFunction,ComponentPad*
%ADD31R,1.7X1.7*%
%ADD32C,1.7*%
%ADD33C,1.2*%
%ADD35R,1.5706X1.5706*%
%ADD38R,3.5X0.25*%
%ADD39R,4.0X0.25*%
G04 #@! TA.AperFunction,ComponentPad*
%ADD40R,1.75X1.75*%
%ADD41C,1.75*%
%ADD42R,1.15X0.3*%
%ADD43R,1.15X0.6*%
G04 #@! TA.AperFunction,ComponentPad*
%ADD44O,1.8X1.0*%
%ADD45O,2.2X1.0*%
%ADD46R,1.0X1.6*%
%ADD47R,0.5X1.7*%
%ADD48R,1.7X0.5*%
%ADD49R,1.8X0.5*%
%ADD50R,0.5X1.8*%
%ADD51R,0.6X2.15*%
%ADD52R,2.15X0.95*%
%ADD53R,2.15X3.25*%
%ADD54R,1.1X0.6*%
%ADD55R,0.6X1.3*%
%ADD56R,0.4X1.3*%
G04 #@! TA.AperFunction,ViaPad*
%ADD57C,1.016*%
%ADD126OUTLINE0*%
%ADD129OUTLINE3*%
%FSLAX35Y35*%
G04*
G71*
G90*
G75*
G01*
G04 Top*
%LPD*%
X8706000Y7118000D2*
D15*
X9079000D1*
X9081000Y7120000D1*
X8920000Y5647000D2*
D16*
Y5910000D1*
X9070000Y6060000D1*
Y6416653D1*
X9202183Y6548837D1*
X9270530D1*
X9390823Y6669130D1*
Y6966920D1*
X9237743Y7120000D1*
X9081000D1*
X8290000Y9125000D2*
D15*
Y8940000D1*
D17*
Y8780000D1*
D15*
X8286000Y8776000D1*
Y8498000D1*
X8261000Y10844000D2*
D16*
Y10107530D1*
Y9154000D1*
X8290000Y9125000D1*
X8393017Y10107530D2*
X8261000D1*
X1562020Y7378340D2*
X1401490Y7217813D1*
Y6683507D1*
X1465130Y6619867D1*
X2042433D1*
X2187330Y6764763D1*
X2499663D1*
X8181200Y7926960D2*
X8286000Y8031760D1*
Y8498000D1*
X7100000Y3180000D2*
Y2879000D1*
X10794000Y3729000D2*
Y3766000D1*
X10700000Y3860000D1*
X10460000D1*
X10187837Y3587837D1*
Y3198990D1*
X8890243Y1901397D1*
X8630727D1*
X8294140D1*
Y2058643D1*
X8213940Y2138843D1*
X7501157D1*
X7100000Y2540000D1*
D17*
Y2879000D1*
X3288770Y5160327D2*
D15*
Y4996970D1*
X3640717Y4645023D1*
X4823357D1*
X5352253Y4116127D2*
Y2903500D1*
X6665320Y1590433D1*
X8642870Y1926287D2*
X8649243Y1919913D1*
X8630727Y1901397D1*
X2755000Y10770000D2*
D18*
X3633997D1*
X3684080Y10719917D1*
X3964080D1*
X4212007Y10471990D1*
X4040007Y10299993D1*
X4156000Y10184000D1*
X4499997D1*
X3390000Y10130000D2*
Y10390000D1*
X3400000D1*
X3684080Y10719917D1*
X2810000Y10130000D2*
D19*
X2967500D1*
D18*
X3120000D1*
X3390000D1*
X3120000Y10140000D2*
Y10130000D1*
X3400000Y10390000D2*
D3*
X4863000Y10184000D2*
Y9930000D1*
Y9676000D1*
X4500000Y9930000D2*
X4863000D1*
X4335500Y7130000D2*
D16*
Y6959047D1*
X4414090Y6880457D1*
X4655457D1*
X4665000Y6890000D1*
D20*
Y7125000D1*
X4770000Y7230000D1*
Y7370000D1*
Y7630000D1*
X4720000Y7680000D1*
X4010000D1*
X3740000Y7950000D1*
X3430000D1*
X3270000Y7790000D1*
X2780000D1*
X2410000Y8160000D1*
Y9050000D1*
X2890000Y9530000D1*
X4717000D1*
X4863000Y9676000D1*
X4930000Y7370000D2*
X4770000D1*
X4335500Y8210000D2*
D16*
Y8408383D1*
X4818383D1*
X4840000Y8430000D1*
X3418000Y4124000D2*
Y4328000D1*
X3420000Y4330000D1*
X3178000Y4124000D2*
X3180000Y4268000D1*
D17*
Y4400000D1*
D16*
Y4530000D1*
Y5523000D1*
X3163000Y5540000D1*
X3338000Y4124000D2*
Y4268000D1*
D17*
X3340000D1*
Y4380000D1*
D16*
Y4530000D1*
X3554353Y3446480D2*
Y3757047D1*
X3511673Y3799727D1*
X3401640D1*
X3338000Y3863367D1*
Y4124000D1*
X7180000Y4320000D2*
Y4560000D1*
D17*
Y4680000D1*
D16*
Y4875000D1*
X7279120Y3907720D2*
X7266773D1*
Y3983227D1*
X7180000Y4070000D1*
Y4320000D1*
X8370000Y6315000D2*
D15*
Y6480000D1*
D17*
Y6654000D1*
D15*
X8366000D1*
Y6938000D1*
X8505000Y5627000D2*
D16*
Y5765000D1*
X8370000Y5900000D1*
Y6315000D1*
X2565000Y10770000D2*
D18*
Y10410587D1*
X2608073Y10367513D1*
X2644987D1*
X2652500Y10360000D1*
D19*
X2810000D1*
X1665000Y10220000D2*
D20*
X1390000D1*
X1280000Y10110000D1*
Y9910000D1*
X1710000Y10770000D2*
D18*
X2565000D1*
X1665000Y9580000D2*
D20*
X1430000D1*
X1280000Y9730000D1*
Y9910000D1*
X1665000Y9580000D2*
X1770000D1*
X1800000Y9550000D1*
Y9400000D1*
X1920000Y9280000D1*
X2260000D1*
X2340000D1*
Y9540000D1*
X2330000D1*
Y9560000D1*
X2215000D1*
X2340000Y9540000D2*
X2350000D1*
Y9550000D1*
X2465000D1*
X2475000Y9560000D1*
X2215000Y9890000D2*
D16*
X2320000D1*
X2350000Y9860000D1*
Y9550000D1*
X2197247Y10280000D2*
X2236360D1*
X2320000Y10196360D1*
Y9890000D1*
X1245000Y8145000D2*
D10*
X1470000D1*
D20*
X2065000D1*
X2260000Y8340000D1*
Y9280000D1*
X1245000Y8695000D2*
D10*
X1470000D1*
D20*
X1575000D1*
X1700000Y8820000D1*
Y9030000D1*
X1510000Y9220000D1*
X1440000D1*
X1420000Y9240000D1*
Y9581933D1*
X1280000Y9730000D1*
X1420000Y9220000D2*
X1432137D1*
X1420000Y9240000D1*
X2940000Y8440000D2*
X2938500Y8438500D1*
Y8210000D1*
Y8438500D2*
Y8691500D1*
X2870000Y8760000D1*
X2760000D1*
X2730000Y8730000D1*
Y8710000D1*
D21*
Y8620000D1*
X3320000Y8815000D2*
D20*
X3430000D1*
X3240000Y7980000D2*
X2980000D1*
X2938500Y8021500D1*
Y8438500D1*
X4550000Y8240000D2*
X4930000D1*
X4974500Y8284500D1*
X5020000Y8330000D1*
Y8992823D1*
X4840000Y9172823D1*
X4855000Y6890000D2*
X5170000D1*
Y8089000D1*
X4974500Y8284500D1*
X5170000Y6890000D2*
X5670000Y6390000D1*
Y5648143D1*
X5709557Y5608587D1*
X5963557D1*
X5709557D2*
X5455557D1*
X3258000Y4124000D2*
D16*
Y4328000D1*
X3260000Y4330000D1*
X3338000Y3284000D2*
Y3072000D1*
X3340000Y3070000D1*
X3178000Y3284000D2*
Y3072000D1*
X3180000Y3070000D1*
X3612337Y1169150D2*
X3612323D1*
X3358330Y1423143D1*
X3776060Y4331103D2*
Y4335513D1*
X3961650Y4521103D1*
X4876073D1*
X5709557Y5354587D1*
X6690000Y3750000D2*
X6389000D1*
X7260000Y4320000D2*
Y4621000D1*
Y3180000D2*
Y2879000D1*
X7830000Y3830000D2*
X8060000D1*
D17*
X8200000D1*
D16*
X8385000D1*
X10540000Y3983000D2*
X10794000Y4237000D1*
X7556483Y3830000D2*
X7830000D1*
X7556483D2*
Y3853517D1*
X7260000Y4150000D1*
Y4320000D1*
X6690000Y3750000D2*
X7159103D1*
X7476483D1*
X7556483Y3830000D1*
X9382637Y2762627D2*
Y2890947D1*
X9458347Y2966660D1*
X9495203D1*
X9547107Y3018563D1*
X9551873D1*
X9663850Y3130540D1*
Y3425663D1*
X10208243Y3970057D1*
X5963557Y5354587D2*
D15*
X6265393Y5052750D1*
Y4502390D1*
X7049797Y4061400D2*
D16*
X7085613D1*
X7165637Y3981377D1*
Y3756533D1*
X7159103Y3750000D1*
X8446000Y6938000D2*
D15*
Y6559000D1*
X8450000Y6555000D1*
X7646000Y6938000D2*
Y6559000D1*
X7650000Y6555000D1*
X8130000Y9125000D2*
Y8940000D1*
D17*
Y8790000D1*
D15*
X8126000Y8786000D1*
Y8498000D1*
X8151723Y8052037D2*
D16*
Y8188277D1*
X8140000Y8200000D1*
Y8484000D1*
X8126000Y8498000D1*
X8920000Y5393000D2*
X8743913Y5569087D1*
Y6112853D1*
X8773150Y6142090D1*
Y6538823D1*
X8829027Y6594700D1*
X4550000Y8010000D2*
X4250000D1*
X4210000Y8050000D1*
Y8208500D1*
X4208500Y8210000D1*
X4840000Y8620000D2*
Y8892710D1*
X4842273Y8894983D1*
Y8916550D1*
X4840000Y8918823D1*
X3066000Y6337000D2*
X3320000D1*
X3574000D2*
X3320000D1*
X3319500Y6337500D1*
Y7130000D1*
X4524000Y6337000D2*
X4270000D1*
X4016000D1*
X3573500Y6779500D1*
Y7130000D1*
X2106000Y6337000D2*
X2360000D1*
X2614000D1*
X3065500Y6788500D1*
Y7130000D1*
X1816020Y7378347D2*
X1816023Y7378340D1*
Y7124347D1*
X1816027Y6870347D1*
X2601170D1*
X2684500Y6953677D1*
Y7130000D1*
X3540480Y9318230D2*
X3286480D1*
Y9318223D1*
X3032480D1*
Y9318217D1*
X3700500D1*
Y8210000D1*
X3925997Y9197237D2*
X4179997D1*
Y9197243D1*
X4433997D1*
Y9197250D1*
X4612250D1*
Y8802333D1*
X4438057Y8628140D1*
X3879937D1*
X3816300Y8564503D1*
Y8305357D1*
X3827500Y8294157D1*
Y8210000D1*
X3192500D2*
Y8717500D1*
X3040000Y8870003D1*
X2500817Y10092453D2*
X2485000Y10076637D1*
Y9985000D1*
X3065500Y8210000D2*
Y8684500D1*
X2890000Y8860000D1*
X2843707D1*
X2815267Y8888440D1*
X2648770Y9727490D2*
X2644063Y9722783D1*
X2571847Y9795000D1*
X2485000D1*
X2830000Y8620000D2*
X2811500Y8601500D1*
Y8210000D1*
X2630000Y8620000D2*
Y8430877D1*
X2686670Y8374207D1*
Y8212170D1*
X2684500Y8210000D1*
X1665000Y9725000D2*
X1805000D1*
X1860000Y9670000D1*
Y9630000D1*
X1881330Y9608670D1*
X1920000Y9570000D1*
X2015000D1*
X2025000Y9560000D1*
X1881330Y9608670D2*
D24*
Y9458670D1*
X1960000Y9380000D1*
X2120000D1*
X2130000Y9390000D1*
X1665000Y10025000D2*
D16*
X1745000D1*
X1890000Y10170000D1*
Y10260000D1*
X1910000Y10280000D1*
X2007247D1*
X1270000Y8495000D2*
D24*
X1575000D1*
X1660000Y8580000D1*
X1740000D1*
X1890000Y8730000D1*
Y8980000D1*
X1600000Y9270000D1*
X1500000Y9770000D2*
Y9790000D1*
X1480000Y9810000D1*
Y9960000D1*
X1550000Y10030000D1*
X1660000D1*
X1665000Y10025000D1*
Y9925000D2*
D16*
X1855000D1*
X1910000Y9980000D1*
X2210000D1*
X2215000Y9985000D1*
X1665000Y9825000D2*
X1575000D1*
X1540000Y9860000D1*
Y9890000D1*
X1575000Y9925000D1*
X1665000D1*
X1270000Y8445000D2*
D24*
X1605000D1*
X1670000Y8510000D1*
X1740000D1*
X1950000Y8720000D1*
Y9120000D1*
X1860000Y9210000D1*
X1910000Y9760000D2*
X1845000Y9825000D1*
X1665000D1*
Y9875000D2*
D16*
X2035000D1*
X2050000Y9860000D1*
X2120000Y9790000D1*
X2210000D1*
X2215000Y9795000D1*
X1665000Y9975000D2*
X1785000D1*
X1890000Y10080000D1*
X2030000D1*
Y9860000D2*
X2050000D1*
X1270000Y8395000D2*
D24*
X1705000D1*
X1665000Y10140000D2*
D16*
X1756360D1*
X1820000Y10203640D1*
Y10400000D1*
X1800000Y10420000D1*
Y10560000D1*
X1945003D1*
X1965000Y10579997D1*
X1665000Y9660000D2*
X1460000D1*
X1390000Y9730000D1*
Y10060000D1*
X1470000Y10140000D1*
X1665000D1*
X1830000Y10560000D2*
D20*
X1945003D1*
X1965000Y10579997D1*
X1245000Y8545000D2*
D10*
X1470000D1*
D20*
X1535000D1*
X1660000Y8670000D1*
X1690000D1*
X1730000Y8710000D1*
X2100000Y8420000D2*
X2030000D1*
X1910000Y8540000D1*
X1245000Y8295000D2*
D10*
X1470000D1*
D20*
X1975000D1*
X2100000Y8420000D1*
X3320000Y8625000D2*
D16*
X3319500Y8624500D1*
Y8210000D1*
X4302163Y5434117D2*
X4556163D1*
X4810163D1*
X4715393Y5528887D1*
Y6432067D1*
X4473827Y6673633D1*
X3878337D1*
X3700500Y6851470D1*
Y7130000D1*
X5434000Y6337000D2*
X5180000D1*
X4926000D1*
X4530320Y6732680D1*
X3962743D1*
X3827500Y6867923D1*
Y7130000D1*
X6690000Y3910000D2*
X6389000D1*
X10540000Y1697000D2*
X10044110Y1201110D1*
X7168890D1*
X5520000Y2850000D1*
Y3380000D1*
X6050000Y3910000D1*
X6090000D1*
D17*
X6200000D1*
D16*
X6389000D1*
X7486000Y6938000D2*
D15*
Y6559000D1*
X7490000Y6555000D1*
X6135000Y3990000D2*
D16*
X6310000D1*
D17*
X6460000D1*
D16*
X6690000D1*
X7410000Y6315000D2*
D15*
Y6490000D1*
D17*
Y6634000D1*
D15*
X7406000D1*
Y6938000D1*
X7235000Y5627000D2*
D16*
Y6140000D1*
X7410000Y6315000D1*
X6690000Y4070000D2*
X6389000D1*
X7326000Y6938000D2*
D15*
Y6559000D1*
X7330000Y6555000D1*
D16*
Y6480000D1*
X7050000Y6200000D1*
Y5558000D1*
X7235000Y5373000D1*
X6135000Y4150000D2*
X6280000D1*
X6320000Y4190000D1*
X6480000D1*
X6520000Y4150000D1*
X6690000D1*
X7146000Y7118000D2*
D15*
X6878000D1*
X6820000Y7060000D1*
X6585000D1*
X6525000Y7120000D1*
D16*
X6500000D1*
X6480000Y7140000D1*
X6090000D1*
X5890000Y6940000D1*
Y6920000D1*
X5821000Y6851000D1*
X5757000D1*
X6860000Y4320000D2*
Y4480000D1*
X6790000Y4550000D1*
Y4805000D1*
X6860000Y4875000D1*
X6779000Y7200000D2*
D15*
X7144000D1*
X7146000Y7198000D1*
X6779000Y7200000D2*
D16*
X6600000D1*
D17*
X6450000D1*
D16*
X6050000D1*
X5830000Y6980000D1*
X5680000D1*
X5551000Y6851000D1*
D17*
X5503000D1*
X6940000Y4320000D2*
D16*
Y4621000D1*
X6525000Y7280000D2*
D15*
X6700000D1*
D17*
X6872000D1*
D15*
Y7278000D1*
X7146000D1*
X6525000Y7280000D2*
D16*
X5932000D1*
X5757000Y7105000D1*
X7020000Y4320000D2*
Y4560000D1*
D17*
Y4680000D1*
D16*
Y4875000D1*
X6890937Y4020233D2*
Y4123473D1*
X6926673Y4159210D1*
X6973357D1*
X7020000Y4205853D1*
Y4320000D1*
X6779000Y7360000D2*
D15*
X7144000D1*
X7146000Y7358000D1*
X6779000Y7360000D2*
D16*
X6610000D1*
D17*
X6450000D1*
D16*
X6440000Y7350000D1*
X5940000D1*
D17*
X5930000Y7340000D1*
X5910000D1*
D16*
X5810000Y7240000D1*
X5600000D1*
X5503000Y7143000D1*
D17*
Y7105000D1*
X7100000Y4320000D2*
D16*
Y4621000D1*
X6525000Y7440000D2*
D15*
X6700000D1*
D17*
X6862000D1*
D15*
Y7438000D1*
X7146000D1*
X6525000Y7440000D2*
D16*
Y7446680D1*
X5866680D1*
X5779000Y7359000D1*
X5757000D1*
X3718000Y3664000D2*
X3876000D1*
D17*
Y3660000D1*
X3986000D1*
D16*
X4130000D1*
X5136337Y1169197D2*
X5139197D1*
X5293233Y1323233D1*
Y2003273D1*
X4998320Y2298187D1*
X4640000D2*
Y3380000D1*
X4360000Y3660000D1*
X4130000D1*
X6135000Y3670000D2*
X6310000D1*
D17*
X6480000D1*
D16*
X6690000D1*
X10794000Y1697000D2*
X10783000D1*
X10650000Y1830000D1*
X10430000D1*
X9896243Y1296243D1*
X7213757D1*
X5630000Y2880000D1*
Y3400000D1*
X5900000Y3670000D1*
X6135000D1*
X8706000Y7838000D2*
D15*
X8988000D1*
D17*
X9170000D1*
D15*
Y7840000D1*
X9335000D1*
X10293000Y10844000D2*
D16*
X10460000Y10677000D1*
Y10370000D1*
X9980000Y9890000D1*
Y8350000D1*
X9470000Y7840000D1*
X9335000D1*
X3718000Y3744000D2*
X3926000D1*
X3930000Y3740000D1*
X6690000Y3590000D2*
X6389000D1*
X10794000Y1951000D2*
X10779000D1*
X10650000Y2080000D1*
X10450000D1*
X9751863Y1381863D1*
X7278137D1*
X5710000Y2950000D1*
Y3370000D1*
X5930000Y3590000D1*
D17*
X6210000D1*
D16*
X6389000D1*
X8706000Y7918000D2*
D15*
X9079000D1*
X9081000Y7920000D1*
X10039000Y10844000D2*
D16*
X10024000D1*
X9860523Y10680523D1*
Y9769943D1*
X9868107Y9762360D1*
Y9228107D1*
X9384580Y8744580D1*
X9129240D1*
X8168417Y7470700D2*
X8531400Y7833683D1*
Y7901217D1*
X8548183Y7918000D1*
X8706000D1*
X3718000Y3824000D2*
X3876000D1*
D17*
Y3820000D1*
X3990000D1*
D16*
X4130000D1*
X4400000D1*
X4882330Y3337670D1*
Y1423187D1*
X6135000Y3510000D2*
X6320000D1*
D17*
X6470000D1*
D16*
X6690000D1*
X10794000Y2205000D2*
X10785000D1*
X10650000Y2340000D1*
X10390000D1*
X9511140Y1461140D1*
X7308860D1*
X5810000Y2960000D1*
Y3330000D1*
X5990000Y3510000D1*
X6135000D1*
X8706000Y7998000D2*
D15*
X8998000D1*
D17*
X9170000D1*
D15*
Y8000000D1*
X9335000D1*
X9785000Y10844000D2*
D16*
Y10692787D1*
X9763460Y10671247D1*
Y9220243D1*
X9390550Y8847333D1*
X9050247D1*
X8986607Y8783693D1*
Y8699660D1*
X9151000Y8535267D1*
X9382100D1*
X9546493Y8370873D1*
Y8137387D1*
X9409107Y8000000D1*
X9335000D1*
X8030770Y7574347D2*
X8161227D1*
X8464353Y7877473D1*
Y7946540D1*
X8518073Y8000260D1*
X8703740D1*
X8706000Y7998000D1*
X3718000Y3904000D2*
X3926000D1*
X3930000Y3900000D1*
X4025500Y4305180D2*
Y3995500D1*
X3930000Y3900000D1*
X6690000Y3430000D2*
X6389000D1*
X10794000Y2459000D2*
Y2466000D1*
X10680000Y2580000D1*
X10390000D1*
X9344077Y1534077D1*
X7385923D1*
X5920000Y3000000D1*
Y3330000D1*
X6020000Y3430000D1*
D17*
X6389000D1*
X8706000Y8078000D2*
D15*
X9079000D1*
X9081000Y8080000D1*
X7817687Y7659457D2*
D16*
X8119697D1*
X8387960Y7927720D1*
Y7983897D1*
X8482223Y8078160D1*
X8705840D1*
X8706000Y8078000D1*
X3718000Y3984000D2*
X3850257D1*
Y4267517D1*
X4010000Y4427260D1*
X4130000D1*
Y3980000D1*
X4245527Y4420533D2*
X4130000D1*
Y3980000D1*
X6135000Y3350000D2*
X6290000D1*
X6320000Y3320000D1*
X6440617D1*
X6540000D1*
X6570000Y3350000D1*
X6690000D1*
X10794000Y2713000D2*
Y2716000D1*
X10670000Y2840000D1*
X10410000D1*
X9164327Y1594327D1*
X7575673D1*
X6440617Y2729383D1*
Y3320000D1*
X8706000Y8158000D2*
D15*
X8978000D1*
D17*
X9160000D1*
D15*
Y8160000D1*
X9335000D1*
X9277000Y10844000D2*
D16*
Y10776753D1*
X9351320Y10702433D1*
X9595493D1*
X9674773Y10623153D1*
Y9253240D1*
X9338633Y8917100D1*
X9021527D1*
X8879453Y8775027D1*
Y8687923D1*
X9098643Y8468733D1*
X9361267D1*
X9460000Y8370000D1*
Y8285000D1*
X9335000Y8160000D1*
X3578000Y4124000D2*
Y4328000D1*
X3580000Y4330000D1*
X6860000Y2625000D2*
Y2750000D1*
X6780000Y2830000D1*
Y2960000D1*
X6860000Y3040000D1*
Y3180000D1*
X10794000Y2967000D2*
Y2986000D1*
X10690000Y3090000D1*
X10420000D1*
X8990920Y1660920D1*
X7675027D1*
X7598497Y1737450D1*
X7520040D1*
X6860000Y2397490D1*
Y2625000D1*
X7584323Y1751623D2*
D15*
X7598497Y1737450D1*
X8706000Y8238000D2*
X9079000D1*
X9081000Y8240000D1*
X3498000Y3284000D2*
D16*
X3500000Y3070000D1*
X3866337Y1169157D2*
Y1179943D1*
X3991807Y1305413D1*
Y1487337D1*
X3505507Y1973637D1*
Y2230163D1*
Y2556180D1*
X3467077Y2594610D1*
Y2697077D1*
X3430733Y2230163D2*
X3505507D1*
X6940000Y3180000D2*
Y2879000D1*
Y2700000D1*
D17*
Y2560000D1*
D16*
Y2422320D1*
X7519137Y1843183D1*
X7765910D1*
X7786327D1*
X7900670Y1728840D1*
X8939427D1*
X10356290Y3145703D1*
Y3286360D1*
X10419930Y3350000D1*
X10680000D1*
X10794000Y3236000D1*
Y3221000D1*
X8706000Y8318000D2*
D15*
X8918000D1*
X8980000Y8380000D1*
X9275000D1*
X9335000Y8320000D1*
X8769000Y10844000D2*
D16*
X8908457Y10704543D1*
X8943657D1*
X9009960Y10638240D1*
X9405997D1*
X9582810Y10461427D1*
Y9256407D1*
X9296403Y8970000D1*
X8840000D1*
X8740000Y8870000D1*
Y8620000D1*
D15*
X8980000Y8380000D1*
X3578000Y3284000D2*
D16*
Y3152000D1*
X3620000Y3110000D1*
Y2910000D1*
X3580000Y2870000D1*
X3817080Y2719930D2*
X3832393D1*
X3682323Y2870000D1*
X3580000D1*
X3938733Y2230163D2*
Y2598277D1*
X3817080Y2719930D1*
X7020000Y3180000D2*
Y2950000D1*
D17*
Y2810000D1*
D16*
Y2625000D1*
X10794000Y3475000D2*
X10669000Y3600000D1*
X10476997D1*
X10263370Y3386373D1*
Y3171907D1*
X8916620Y1825157D1*
X8205937D1*
Y1982453D1*
X8141507Y2046883D1*
X8121470D1*
X7473117D1*
X7020000Y2500000D1*
Y2625000D1*
X6065643Y2041937D2*
D15*
X5102357Y3005223D1*
Y4598177D1*
X4965393Y4914847D2*
X5030120Y4979573D1*
Y5828317D1*
X4550900Y5823583D2*
X2873417D1*
X2614000Y6083000D1*
X8526000Y8498000D2*
Y8853000D1*
X8530000Y8857000D1*
X8515000Y10844000D2*
D16*
X8533213D1*
X8818223Y10558990D1*
X9361553D1*
X9515033Y10405510D1*
Y9303233D1*
X9260393Y9048593D1*
X8908047D1*
X8901070Y9041617D1*
X8707247D1*
X8530000Y8864370D1*
Y8857000D1*
X3098000Y4124000D2*
Y4328000D1*
X3100000Y4330000D1*
X7830000Y3910000D2*
X8131000D1*
X9200000Y6269000D2*
Y6160000D1*
X9460000Y5900000D1*
Y4911817D1*
X8672380Y4124197D1*
X6779000Y8160000D2*
D15*
X7144000D1*
X7146000Y8158000D1*
X6779000Y8160000D2*
D16*
X6590000D1*
D17*
X6470000D1*
D16*
X6160000D1*
X5820000Y8500000D1*
X5640000D1*
X5509000Y8369000D1*
D17*
X5503000Y8375000D1*
X3018000Y4124000D2*
D16*
Y4242000D1*
X2970000Y4290000D1*
Y4480000D1*
X3020000Y4530000D1*
X7830000Y3990000D2*
X8050000D1*
D17*
X8200000D1*
D16*
X8385000D1*
X9180000Y5960000D2*
X9210000D1*
X9300000Y5870000D1*
Y4905000D1*
X8385000Y3990000D1*
X6525000Y8080000D2*
D15*
X6700000D1*
D17*
X6862000D1*
D15*
Y8078000D1*
X7146000D1*
X6525000Y8080000D2*
D16*
X6130000D1*
X5835000Y8375000D1*
X5757000D1*
X2878000Y3984000D2*
X2674000D1*
X2670000Y3980000D1*
X2596330Y1423120D2*
Y2285640D1*
X1830000Y3051970D1*
Y3480000D1*
X7830000Y4070000D2*
X8131000D1*
X9171000Y5761000D2*
X9151000D1*
X9070000Y5680000D1*
Y4952690D1*
X8417310Y4300000D1*
X7810000D1*
X7660000Y4150000D1*
Y4090000D1*
X7680000Y4070000D1*
X7830000D1*
X6779000Y8000000D2*
D15*
X7144000D1*
X7146000Y7998000D1*
X6779000Y8000000D2*
D16*
X6600000D1*
D17*
X6460000D1*
D16*
X6090000D1*
X5950000Y8140000D1*
X5940000D1*
X5840000Y8240000D1*
X5622000D1*
X5503000Y8121000D1*
X2470000Y3900000D2*
X2590000D1*
D17*
X2740000D1*
X2744000Y3904000D1*
D16*
X2878000D1*
X2470000Y3900000D2*
X2000000D1*
X1700000Y3600000D1*
Y2840000D1*
X2325077Y2214923D1*
Y1604923D1*
X2342330Y1587670D1*
Y1423113D1*
X7830000Y4150000D2*
X7930000D1*
X7970000Y4190000D1*
X8280000D1*
X8320000Y4150000D1*
X8385000D1*
X9170000Y5507000D2*
Y4893200D1*
X8426800Y4150000D1*
X8385000D1*
X6525000Y7920000D2*
D15*
X6700000D1*
D17*
X6878000D1*
D15*
Y7918000D1*
X7146000D1*
X6525000Y7920000D2*
D16*
X6050000D1*
X5849000Y8121000D1*
X5757000D1*
X2878000Y3824000D2*
X2674000D1*
X2670000Y3820000D1*
X2130000Y3410000D2*
X1920000Y3620000D1*
X4556163Y5180117D2*
X4349420Y4973373D1*
X3724147D1*
X3641253Y5056267D1*
Y5691083D1*
X3561230Y5771107D1*
X3038770D1*
X2324853Y5057190D1*
Y4077867D1*
X7660000Y4320000D2*
Y4460000D1*
X7720000Y4520000D1*
Y4722597D1*
X7660000Y4782597D1*
Y4875000D1*
X8270613Y4923057D2*
X7730520D1*
Y4875000D1*
X7660000D1*
X6779000Y7840000D2*
D15*
X7144000D1*
X7146000Y7838000D1*
X6779000Y7840000D2*
D16*
X6600000D1*
D17*
X6450000D1*
D16*
X6010000D1*
X5860000Y7990000D1*
X5626000D1*
X5503000Y7867000D1*
X2470000Y3740000D2*
X2590000D1*
D17*
X2740000D1*
X2744000Y3744000D1*
D16*
X2878000D1*
X5180000Y6083000D2*
Y4955670D1*
X4978567Y4754237D1*
X3774917D1*
X3577830Y4951323D1*
Y5683260D1*
X3055190D1*
Y5641403D1*
X2462190Y5048403D1*
Y4057357D1*
X2372457Y3967623D1*
X1952743D1*
X1569650Y3584530D1*
Y2809597D1*
X1834330Y2544917D1*
Y1423097D1*
X7580000Y4320000D2*
Y4621000D1*
X8366170Y4781300D2*
X8379250Y4794380D1*
X7808493D1*
X6525000Y7760000D2*
D15*
X6690000D1*
D17*
X6878000D1*
D15*
Y7758000D1*
X7146000D1*
X6525000Y7760000D2*
D16*
X5970000D1*
X5863000Y7867000D1*
X5757000D1*
X2878000Y3664000D2*
X2674000D1*
X2670000Y3660000D1*
X7500000Y4320000D2*
Y4570000D1*
D17*
Y4670000D1*
D16*
Y4875000D1*
X6779000Y7680000D2*
D15*
X7144000D1*
X7146000Y7678000D1*
X6779000Y7680000D2*
D16*
X6600000D1*
D17*
X6447510D1*
X6444720Y7677210D1*
D16*
X5942790D1*
X5880000Y7740000D1*
X5630000D1*
X5503000Y7613000D1*
X7420000Y4320000D2*
Y4621000D1*
X6525000Y7600000D2*
D15*
X6700000D1*
D17*
X6862000D1*
D15*
Y7598000D1*
X7146000D1*
X6525000Y7600000D2*
D16*
X5900000D1*
X5887000Y7613000D1*
X5757000D1*
X2470000Y3580000D2*
X2590000D1*
D17*
X2744000D1*
D16*
Y3584000D1*
X2878000D1*
X2216703Y2196380D2*
Y1297470D1*
X2088337Y1169107D1*
Y1179263D1*
X1971603Y1295997D1*
X1754080D1*
X1669540Y1380537D1*
Y2532533D1*
X1479743Y2722330D1*
Y3646030D1*
X2045793Y4212080D1*
Y5703327D1*
X1269857Y6479263D1*
Y7462697D1*
X1366933Y7559773D1*
X3264150D1*
X3538923Y7834547D1*
X7500000Y3180000D2*
Y2950000D1*
D17*
Y2810000D1*
D16*
Y2625000D1*
X10794000Y4999000D2*
X10789000D1*
X10660000Y4870000D1*
X10440000D1*
X10150000Y4580000D1*
Y4290000D1*
X8590000Y2730000D1*
X8000000D1*
X7890000Y2840000D1*
X7830000D1*
X7790000Y2800000D1*
Y2582500D1*
X7717500Y2510000D1*
X7615000D1*
X7500000Y2625000D1*
X6243550Y7003240D2*
Y6096450D1*
X7189210Y5150790D1*
X8513877D1*
X8762343Y4902323D1*
X7886000Y8498000D2*
D15*
Y8853000D1*
X7890000Y8857000D1*
X8136000Y9820000D2*
D16*
X7890000Y9574000D1*
Y9210000D1*
D17*
Y9040000D1*
D16*
Y8857000D1*
X7681007Y7496317D2*
Y8061203D1*
X7886087Y8266283D1*
Y8497913D1*
X7886000Y8498000D1*
X2878000Y3504000D2*
X2674000D1*
X2670000Y3500000D1*
X2342337Y1169113D2*
Y1218187D1*
X2380753D1*
X2465223Y1302657D1*
Y2230000D1*
X1342110Y4247617D2*
X1332247Y4237753D1*
X1610000Y3960000D1*
Y3940653D1*
X7580000Y3180000D2*
Y2879000D1*
X10794000Y5253000D2*
Y5244000D1*
X10680000Y5130000D1*
X10460000D1*
X10060000Y4730000D1*
Y4350000D1*
X8530000Y2820000D1*
X8080000D1*
X7980000Y2920000D1*
X6100000Y7010000D2*
Y6127750D1*
X7147817Y5079933D1*
X8413063D1*
X8693043Y4799953D1*
X8824720D1*
X8896380Y4871613D1*
Y5126933D1*
X7810000Y9125000D2*
D15*
Y8950000D1*
D17*
Y8766000D1*
D15*
X7806000D1*
Y8498000D1*
X7810000Y9125000D2*
D16*
Y9450000D1*
X7660000Y9600000D1*
Y10751000D1*
X7753000Y10844000D1*
X7674727Y7305700D2*
X7611417D1*
X7497457Y7419660D1*
Y8010563D1*
X7805570Y8318677D1*
Y8497570D1*
X7806000Y8498000D1*
X2470000Y3420000D2*
X2540000D1*
X2590000Y3370000D1*
X2710000D1*
X2764000Y3424000D1*
X2878000D1*
X2596337Y1169120D2*
Y1202463D1*
X2725057Y1331183D1*
Y3370000D1*
X2710000D1*
X7660000Y2625000D2*
Y2780000D1*
X7710000Y2830000D1*
Y2950000D1*
X7699310Y2960690D1*
X7660000Y3000000D1*
Y3180000D1*
X10794000Y5507000D2*
Y5504000D1*
X10670000Y5380000D1*
X10460000D1*
X9980000Y4900000D1*
Y4500000D1*
X8550000Y3070000D1*
X7808620D1*
X7699310Y2960690D1*
X7726000Y8498000D2*
D15*
Y8853000D1*
X7730000Y8857000D1*
X7499000Y10844000D2*
D16*
Y9601000D1*
X7730000Y9370000D1*
Y9200000D1*
D17*
Y9040000D1*
D16*
Y8857000D1*
X3018000Y3284000D2*
Y3072000D1*
X3020000Y3070000D1*
X2850337Y1169127D2*
X2861440D1*
X2980210Y1287897D1*
Y3030210D1*
X3020000Y3070000D1*
X7830000Y3350000D2*
X8020000D1*
X8050000Y3320000D1*
X8280000D1*
X8310000Y3350000D1*
X8385000D1*
X10794000Y5761000D2*
X10781000D1*
X10660000Y5640000D1*
X10380000D1*
X9820000Y5080000D1*
Y4560000D1*
X8610000Y3350000D1*
X8385000D1*
X7650000Y9125000D2*
D15*
Y8940000D1*
D17*
Y8766000D1*
D15*
X7646000D1*
Y8498000D1*
X7650000Y9125000D2*
D16*
Y9210000D1*
X7245000Y9615000D1*
Y10844000D1*
X3098000Y3284000D2*
X3100000Y3132000D1*
D17*
Y3010000D1*
D16*
Y2870000D1*
Y1649943D1*
X3233427Y1516517D1*
Y1298223D1*
X3104337Y1169137D1*
X7830000Y3430000D2*
X8131000D1*
X10794000Y6015000D2*
Y6014000D1*
X10670000Y5890000D1*
X10460000D1*
X9740000Y5170000D1*
Y4640000D1*
X8550000Y3450000D1*
X7566000Y8498000D2*
D15*
Y8853000D1*
X7570000Y8857000D1*
X6991000Y10844000D2*
D16*
X7180000Y10655000D1*
Y9600000D1*
X7570000Y9210000D1*
D17*
Y9040000D1*
D16*
Y8857000D1*
X3718000Y3424000D2*
X3926000D1*
X3930000Y3420000D1*
X3960000D1*
X4030000Y3350000D1*
Y2956360D1*
X4020000Y2946360D1*
Y2396090D1*
X4254937Y2161153D1*
Y1288573D1*
X4374337Y1169173D1*
X7830000Y3510000D2*
X8050000D1*
D17*
X8200000D1*
D16*
X8385000D1*
X10794000Y6269000D2*
Y6264000D1*
X10670000Y6140000D1*
X10400000D1*
X10330000Y6070000D1*
Y5900000D1*
X9670000Y5240000D1*
Y4680000D1*
X8590000Y3600000D1*
X8475000D1*
X8385000Y3510000D1*
X7490000Y9125000D2*
D15*
Y8940000D1*
D17*
Y8766000D1*
D15*
X7486000D1*
Y8498000D1*
X7490000Y9125000D2*
D16*
Y9153537D1*
X7405700Y9237837D1*
X7326423D1*
X6737000Y9827260D1*
Y10844000D1*
X3718000Y3504000D2*
X3876000D1*
D17*
Y3500000D1*
X3996000D1*
D16*
X4130000D1*
X4628337Y1169180D2*
X4568433D1*
X4504793Y1232820D1*
Y2005207D1*
X4130000Y2380000D1*
Y3500000D1*
X7830000Y3590000D2*
X8131000D1*
X10794000Y6523000D2*
X10773000D1*
X10640000Y6390000D1*
X10390000D1*
X10240000Y6240000D1*
Y5970000D1*
X9610000Y5340000D1*
Y4770000D1*
X8584227Y3744227D1*
X7406000Y8498000D2*
D15*
Y8853000D1*
X7410000Y8857000D1*
X3718000Y3584000D2*
D16*
X3926000D1*
X3930000Y3580000D1*
X4882337Y1169187D2*
X4817787D1*
X4754143Y1232830D1*
Y1955857D1*
X4270000Y2440000D1*
Y3190000D1*
X7830000Y3670000D2*
X8060000D1*
D17*
X8210000D1*
D16*
X8385000D1*
X10540000Y6523000D2*
X10423000D1*
X9660000Y5760000D1*
Y5680000D1*
X9530000Y5550000D1*
Y4815000D1*
X8385000Y3670000D1*
X7326000Y8498000D2*
D15*
Y8684000D1*
X7270000Y8740000D1*
Y9065000D1*
X7330000Y9125000D1*
X6229000Y10844000D2*
D16*
Y10226000D1*
X7330000Y9125000D1*
X8706000Y7198000D2*
D15*
X8998000D1*
D17*
X9160000D1*
D15*
Y7200000D1*
X9335000D1*
X9740000D1*
X9851000Y7089000D1*
X10073000D1*
X3926003Y8943237D2*
D16*
X3799297D1*
Y9371133D1*
X5714147D1*
X6634447Y8450833D1*
X6914563D1*
X6945260Y8420137D1*
X7220217D1*
X7406270Y8234083D1*
Y7324090D1*
X7526983Y7203377D1*
X8700623D1*
X8706000Y7198000D1*
Y7278000D2*
D15*
X9079000D1*
X9081000Y7280000D1*
X9250000D1*
D17*
X9400000D1*
D16*
X9850000D1*
X9920000Y7210000D1*
X10206000D1*
X10327000Y7089000D1*
X3032487Y9064217D2*
X2898233D1*
Y9386360D1*
X2961873Y9450000D1*
X5746553D1*
X6668980Y8527573D1*
X6937620D1*
X6941460Y8531413D1*
X7111877D1*
X7196940Y8616477D1*
X9335000Y7360000D2*
D15*
X9170000D1*
D17*
X8992000D1*
D15*
Y7358000D1*
X8706000D1*
X9335000Y7360000D2*
X10090000D1*
X10073000Y7343000D1*
X8706000Y7438000D2*
X9079000D1*
X9081000Y7440000D1*
X9250000D1*
D17*
X9410000D1*
D16*
X9950000D1*
X9980000Y7470000D1*
X10200000D1*
X10327000Y7343000D1*
X8706000Y7518000D2*
D15*
X8992000D1*
D17*
X9170000D1*
D15*
Y7520000D1*
X9335000D1*
X9910000D1*
X9987000Y7597000D1*
X10073000D1*
X8706000Y7598000D2*
X9079000D1*
X9081000Y7600000D1*
X9250000D1*
D17*
X9410000D1*
D16*
X9840000D1*
X9950000Y7710000D1*
X10214000D1*
X10327000Y7597000D1*
X8706000Y7678000D2*
D15*
X8992000D1*
D17*
X9170000D1*
D15*
Y7680000D1*
X9335000D1*
X9750000D1*
X9921000Y7851000D1*
X10073000D1*
X8706000Y7758000D2*
X9079000D1*
X9081000Y7760000D1*
X10327000Y7851000D2*
D16*
X10319000D1*
X10190000Y7980000D1*
X9920000D1*
X9700000Y7760000D1*
X9410000D1*
D17*
X9250000D1*
D15*
X9081000D1*
X8286000Y6938000D2*
Y6559000D1*
X8290000Y6555000D1*
X8210000Y6315000D2*
Y6490000D1*
D17*
Y6654000D1*
D15*
X8206000D1*
Y6938000D1*
X8251000Y5627000D2*
D16*
Y5869000D1*
X8210000Y5910000D1*
Y6315000D1*
X8126000Y6938000D2*
D15*
Y6559000D1*
X8130000Y6555000D1*
X8046000Y6938000D2*
Y6644000D1*
D17*
X8050000D1*
Y6490000D1*
D15*
Y6315000D1*
X7997000Y5627000D2*
D16*
Y5887000D1*
X8050000Y5940000D1*
Y6315000D1*
X7966000Y6938000D2*
D15*
Y6559000D1*
X7970000Y6555000D1*
X7886000Y6938000D2*
Y6644000D1*
D17*
X7890000D1*
Y6490000D1*
D15*
Y6315000D1*
X7743000Y5627000D2*
D16*
Y5853000D1*
X7890000Y6000000D1*
Y6315000D1*
X7806000Y6938000D2*
D15*
Y6559000D1*
X7810000Y6555000D1*
X7730000Y6315000D2*
Y6490000D1*
D17*
Y6646000D1*
D15*
X7726000D1*
Y6938000D1*
X7489000Y5627000D2*
D16*
Y5809000D1*
X7730000Y6050000D1*
Y6315000D1*
X6779000Y8320000D2*
D15*
X7144000D1*
X7146000Y8318000D1*
X6779000Y8320000D2*
D16*
X6630000D1*
X6110000Y8840000D1*
X5714000D1*
X5503000Y8629000D1*
X6525000Y8240000D2*
D15*
X6700000D1*
D17*
X6862000D1*
D15*
Y8238000D1*
X7146000D1*
X6525000Y8240000D2*
D16*
X6200000D1*
X5811000Y8629000D1*
X5757000D1*
X6779000Y7520000D2*
D15*
X7144000D1*
X7146000Y7518000D1*
X6779000Y7520000D2*
D16*
X6610000D1*
D17*
X6460000D1*
D16*
X5860000D1*
X5840000Y7500000D1*
D17*
X5830000Y7490000D1*
D16*
X5634000D1*
X5503000Y7359000D1*
X8366000Y8498000D2*
D15*
Y8853000D1*
X8370000Y8857000D1*
X8390000Y9820000D2*
D16*
Y9230000D1*
X8370000Y9210000D1*
D17*
Y9050000D1*
D16*
Y8857000D1*
X8450000Y9125000D2*
D15*
Y8940000D1*
D17*
Y8780000D1*
D15*
X8446000Y8776000D1*
Y8498000D1*
X8450000Y9125000D2*
D16*
Y9400000D1*
X8644000Y9594000D1*
Y9820000D1*
X2295000Y10580003D2*
X2399997D1*
X2450000Y10530000D1*
Y10350000D1*
X2380000Y10280000D1*
Y9950000D1*
X2430000Y9900000D1*
X2475000D1*
X2485000Y9890000D1*
D25*
X2590000D1*
D18*
X2642500D1*
X2652500Y9900000D1*
D19*
X2810000D1*
X2665000Y9560000D2*
D18*
X2764977D1*
D19*
X2810000Y9605023D1*
Y9900000D1*
X4500003Y9676000D2*
D18*
X2810000D1*
D19*
Y9900000D1*
X3418000Y3284000D2*
D16*
Y3132000D1*
D17*
X3420000D1*
Y3010000D1*
D16*
Y2870000D1*
X3258000Y3284000D2*
Y3132000D1*
D17*
X3260000D1*
Y3010000D1*
D16*
Y2870000D1*
X3498000Y4124000D2*
Y4278000D1*
D17*
X3500000D1*
Y4390000D1*
D16*
Y4530000D1*
X3866330Y1423157D2*
Y1429673D1*
X3288387Y2007617D1*
Y2681613D1*
X3260000Y2710000D1*
Y2870000D1*
X3420000D1*
X3454537Y3668273D2*
X3378057D1*
X3256010Y3546227D1*
Y3285990D1*
X3258000Y3284000D1*
X3454537Y3668273D2*
Y3539227D1*
X3419360Y3504050D1*
Y3285360D1*
X3418000Y3284000D1*
X3488383Y3920763D2*
Y4114383D1*
X3498000Y4124000D1*
X5133863Y8335503D2*
Y9145120D1*
X5130027Y9148957D1*
X5604623Y9715573D2*
X5400197Y9920000D1*
X5170000D1*
X5160000Y9930000D1*
X5117000D1*
X7830000Y3750000D2*
X8131000D1*
X7180000Y3180000D2*
Y2950000D1*
D17*
Y2820000D1*
D16*
Y2625000D1*
X6135000Y3830000D2*
X6310000D1*
D17*
X6470000D1*
D16*
X6690000D1*
X7340000Y4320000D2*
Y4570000D1*
D17*
Y4670000D1*
D16*
Y4875000D1*
X7587647Y3403357D2*
X7233357D1*
X7170000Y3340000D1*
Y3190000D1*
X7180000Y3180000D1*
X7830000Y3750000D2*
X7680000D1*
X7587647Y3657647D1*
Y3403357D1*
X7586790Y4060000D2*
X7470000D1*
X7340000Y4190000D1*
Y4320000D1*
X6690000Y3830000D2*
X7030000D1*
X7070000Y3870000D1*
Y3640000D2*
X7351003D1*
X7587647Y3403357D1*
X5117000Y10184000D2*
X5828023D1*
X5894023Y10250000D1*
X6095977D1*
X6159617Y10186360D1*
Y9852847D1*
X6150980Y9844210D1*
Y9176910D1*
X6421417Y7006497D2*
Y6138393D1*
X6847757Y5712053D1*
X6537080Y5401377D2*
X6544583D1*
X6546933Y5403727D1*
X7340000Y4875000D2*
Y4948973D1*
X7283127Y5005847D1*
X6932610D1*
X6537080Y5401377D1*
X8206000Y8498000D2*
D15*
Y8853000D1*
X8210000Y8857000D1*
X8526000Y6938000D2*
Y6654000D1*
X8570000Y6610000D1*
Y6355000D1*
X8530000Y6315000D1*
X7570000D2*
Y6480000D1*
D17*
Y6644000D1*
D15*
X7566000D1*
Y6938000D1*
X9286163Y6746827D2*
D16*
X8724407D1*
X8690777Y6713197D1*
Y6240633D1*
X8592327Y6142183D1*
X8583017Y10107530D2*
X8854917D1*
Y9708847D1*
X8757450Y9611380D1*
Y9616060D1*
X8841680Y9700290D1*
X9315763D1*
X8854917Y10107530D2*
X8864477D1*
Y10275170D1*
X8577480Y10562167D1*
X6050000Y10090000D2*
Y10060000D1*
X5997890Y10007890D1*
Y9915693D1*
X5676693Y9594497D1*
X5469130D1*
X5387627Y9676000D1*
X5117000D1*
X7420000Y3180000D2*
Y2879000D1*
X10794000Y4745000D2*
X10775000D1*
X10650000Y4620000D1*
X10440000D1*
X10260000Y4440000D1*
Y4200000D1*
X9241613Y3181613D1*
X8907247Y2847247D1*
X8690000Y2630000D1*
X7950000D1*
X7900000Y2680000D1*
X8942753Y2805653D2*
Y2811740D1*
X8907247Y2847247D1*
X9323993Y3101007D2*
X9322220D1*
X9241613Y3181613D1*
X7970000Y9125000D2*
D15*
Y8950000D1*
D17*
Y8776000D1*
D15*
X7966000D1*
Y8498000D1*
X7988247Y8208960D2*
D16*
Y8351753D1*
X7960000Y8380000D1*
Y8492000D1*
X7966000Y8498000D1*
X7340000Y3180000D2*
Y2950000D1*
D17*
Y2820000D1*
D16*
Y2625000D1*
Y2550000D1*
X7498973Y2391027D1*
X8942753D1*
X9017637D1*
X9263930D1*
X10116083Y3243180D1*
Y3644330D1*
X10402117Y3930363D1*
Y4306360D1*
X10465757Y4370000D1*
X10673000D1*
X10794000Y4491000D1*
X8942753Y2297653D2*
Y2391027D1*
X9248283Y2628273D2*
Y2621673D1*
X9017637Y2391027D1*
X8046000Y8498000D2*
D15*
Y8853000D1*
X8050000Y8857000D1*
D57*
X2499663Y6764763D3*
X8181200Y7926960D3*
X3288770Y5160327D3*
X4823357Y4645023D3*
X5352253Y4116127D3*
X6665320Y1590433D3*
X8642870Y1926287D3*
X3554353Y3446480D3*
X7279120Y3907720D3*
X1280000Y9910000D3*
X1710000Y10770000D3*
X2065000Y8145000D3*
X1420000Y9220000D3*
X2940000Y8440000D3*
X2065000Y8145000D3*
X3430000Y8815000D3*
X3240000Y7980000D3*
X4550000Y8240000D3*
X3776060Y4331103D3*
X7556483Y3830000D3*
D3*
D3*
X10208243Y3970057D3*
X6265393Y4502390D3*
X7049797Y4061400D3*
X8151723Y8052037D3*
X8829027Y6594700D3*
X3040000Y8870003D3*
X2500817Y10092453D3*
X2815267Y8888440D3*
X2648770Y9727490D3*
X2130000Y9390000D3*
X1600000Y9270000D3*
X1500000Y9770000D3*
X1860000Y9210000D3*
X1910000Y9760000D3*
X2030000Y10080000D3*
Y9860000D3*
X1705000Y8395000D3*
D3*
X1830000Y10560000D3*
X1730000Y8710000D3*
X2100000Y8420000D3*
X1910000Y8540000D3*
X1730000Y8710000D3*
X2100000Y8420000D3*
X6890937Y4020233D3*
X4998320Y2298187D3*
X4640000D3*
X9129240Y8744580D3*
X8168417Y7470700D3*
X8030770Y7574347D3*
X4025500Y4305180D3*
X7817687Y7659457D3*
X4245527Y4420533D3*
X7584323Y1751623D3*
X3467077Y2697077D3*
X7765910Y1843183D3*
X3817080Y2719930D3*
D3*
X6065643Y2041937D3*
X5102357Y4598177D3*
X4965393Y4914847D3*
X5030120Y5828317D3*
X4550900Y5823583D3*
X8121470Y2046883D3*
X9200000Y6269000D3*
X8672380Y4124197D3*
X9180000Y5960000D3*
X1830000Y3480000D3*
X9171000Y5761000D3*
X9170000Y5507000D3*
X2130000Y3410000D3*
X1920000Y3620000D3*
X2324853Y4077867D3*
X8270613Y4923057D3*
X8366170Y4781300D3*
X7808493Y4794380D3*
X2216703Y2196380D3*
X3538923Y7834547D3*
X6243550Y7003240D3*
X8762343Y4902323D3*
X7681007Y7496317D3*
X2465223Y2230000D3*
X1342110Y4247617D3*
X1610000Y3940653D3*
X7980000Y2920000D3*
X6100000Y7010000D3*
X8896380Y5126933D3*
X7674727Y7305700D3*
X8550000Y3450000D3*
X8584227Y3744227D3*
X4270000Y3190000D3*
X7196940Y8616477D3*
X3454537Y3668273D3*
D3*
X3488383Y3920763D3*
X5133863Y8335503D3*
X5130027Y9148957D3*
X5604623Y9715573D3*
X7587647Y3403357D3*
D3*
X7586790Y4060000D3*
X7070000Y3870000D3*
Y3640000D3*
X7587647Y3403357D3*
X7070000Y3870000D3*
X6150980Y9176910D3*
X6421417Y7006497D3*
X6847757Y5712053D3*
X6537080Y5401377D3*
D3*
X9286163Y6746827D3*
X8592327Y6142183D3*
D3*
X8757450Y9611380D3*
X9315763Y9700290D3*
X8577480Y10562167D3*
X6050000Y10090000D3*
X7900000Y2680000D3*
X7988247Y8208960D3*
X3120000Y10300000D3*
Y10140000D3*
Y9970000D3*
X3400000Y9900000D3*
X3570000Y10130000D3*
Y10390000D3*
X3400000D3*
X3570000Y9900000D3*
X3130713Y10825083D2*
D26*
X5301913D1*
X2702193Y10761917D2*
X2812993D1*
X3129163D2*
X5301913D1*
X2702193Y10698750D2*
X3041360D1*
X3119960D2*
X5301913D1*
X2702193Y10635583D2*
X5301913D1*
X2691893Y10572417D2*
X5301913D1*
X2691893Y10509250D2*
X5301913D1*
X2989710Y10446083D2*
X5301913D1*
X2989710Y10382917D2*
X5301913D1*
X2989710Y10319750D2*
X4321913D1*
X2989710Y10256583D2*
X4321913D1*
X2658123Y10193417D2*
X4321913D1*
X2658123Y10130250D2*
X4321913D1*
X2658123Y10067083D2*
X4321913D1*
X2989710Y10003917D2*
X4321913D1*
X2989710Y9940750D2*
X4321913D1*
X2989710Y9877583D2*
X4321913D1*
X2989710Y9814417D2*
X4321913D1*
X3093183Y10688413D2*
X3107470Y10693490D1*
X3117767Y10704600D1*
X3121740Y10719220D1*
X3125767Y10882180D1*
X5308250Y10888150D1*
X5308260Y10361750D1*
X4383333D1*
X4356023Y10361500D1*
X4341883Y10356073D1*
X4331863Y10344710D1*
X4328250Y10330000D1*
X4328240Y9791850D1*
X2983350Y9791853D1*
Y10013350D1*
X2675237Y10013347D1*
X2654843Y10015827D1*
X2651750Y10015857D1*
X2651767Y10244617D1*
X2668747Y10245293D1*
X2676450Y10246650D1*
X2983350D1*
Y10473350D1*
X2695520D1*
X2685553Y10476017D1*
X2685573Y10629150D1*
X2695850D1*
X2695847Y10796080D1*
X3081513Y10689403D1*
X3093183Y10688413D1*
X1388453Y10315083D2*
X1446530D1*
X1357557Y10251917D2*
X1477427D1*
X1138123Y10188750D2*
X1398040D1*
X1138123Y10125583D2*
X1334877D1*
X1138123Y10062417D2*
X1302837D1*
X1138123Y9999250D2*
X1302793D1*
X1138123Y9936083D2*
X1302793D1*
X1138123Y9872917D2*
X1302793D1*
X1138123Y9809750D2*
X1302793D1*
X1138123Y9746583D2*
X1302793D1*
X1138123Y9683417D2*
X1317557D1*
X1138123Y9620250D2*
X1379080D1*
X1347893Y9557083D2*
X1487090D1*
X1386770Y9493917D2*
X1448217D1*
X1383533Y9430750D2*
X1451450D1*
X1331627Y9367583D2*
X1503360D1*
X1138123Y9304417D2*
X1482213D1*
X1138123Y9241250D2*
X1480617D1*
X1138123Y9178083D2*
X1521817D1*
X1460063Y9579150D2*
X1534850D1*
X1530853Y9577900D1*
X1527183Y9576610D1*
X1523563Y9575197D1*
X1519990Y9573660D1*
X1516470Y9572007D1*
X1513007Y9570233D1*
X1509607Y9568347D1*
X1503007Y9564240D1*
X1496697Y9559697D1*
X1490703Y9554740D1*
X1485057Y9549390D1*
X1479783Y9543677D1*
X1474903Y9537623D1*
X1470440Y9531253D1*
X1466417Y9524600D1*
X1462847Y9517690D1*
X1459750Y9510557D1*
X1457137Y9503233D1*
X1455023Y9495750D1*
X1453413Y9488143D1*
X1452320Y9480443D1*
X1451743Y9472687D1*
X1451690Y9464913D1*
X1452160Y9457150D1*
X1453147Y9449437D1*
X1454650Y9441807D1*
X1456660Y9434297D1*
X1459173Y9426937D1*
X1462170Y9419760D1*
X1465643Y9412803D1*
X1469577Y9406093D1*
X1473950Y9399663D1*
X1478747Y9393543D1*
X1483940Y9387757D1*
X1489513Y9382330D1*
X1495433Y9377293D1*
X1501683Y9372663D1*
X1508227Y9368460D1*
X1515037Y9364710D1*
X1522087Y9361423D1*
X1526037Y9359840D1*
X1511290Y9345747D1*
X1497857Y9326340D1*
X1488607Y9304627D1*
X1483917Y9281493D1*
X1483980Y9257890D1*
X1488793Y9234783D1*
X1498157Y9213120D1*
X1511693Y9193783D1*
X1528843Y9177567D1*
X1537100Y9171750D1*
X1131750Y9171757D1*
X1131743Y9353233D1*
X1139727Y9352410D1*
X1147500Y9352150D1*
X1267500D1*
X1273673Y9352313D1*
X1281420Y9352990D1*
X1289107Y9354183D1*
X1296693Y9355887D1*
X1304147Y9358100D1*
X1311437Y9360803D1*
X1318530Y9363993D1*
X1325393Y9367653D1*
X1331993Y9371760D1*
X1338303Y9376307D1*
X1344297Y9381260D1*
X1349943Y9386610D1*
X1355217Y9392323D1*
X1360097Y9398377D1*
X1364560Y9404747D1*
X1368583Y9411400D1*
X1372153Y9418310D1*
X1375250Y9425443D1*
X1377863Y9432767D1*
X1379977Y9440250D1*
X1381587Y9447857D1*
X1382680Y9455557D1*
X1383257Y9463313D1*
X1383310Y9471087D1*
X1382840Y9478850D1*
X1381853Y9486563D1*
X1380350Y9494193D1*
X1378340Y9501703D1*
X1375827Y9509063D1*
X1372830Y9516240D1*
X1369357Y9523197D1*
X1365423Y9529907D1*
X1361050Y9536337D1*
X1356253Y9542457D1*
X1351060Y9548243D1*
X1345487Y9553670D1*
X1339567Y9558707D1*
X1333317Y9563337D1*
X1326773Y9567540D1*
X1319963Y9571290D1*
X1312913Y9574577D1*
X1305663Y9577383D1*
X1298240Y9579697D1*
X1290677Y9581510D1*
X1283010Y9582807D1*
X1275273Y9583590D1*
X1267500Y9583850D1*
X1147500D1*
X1141327Y9583687D1*
X1133580Y9583010D1*
X1131750Y9582780D1*
X1131743Y10217233D1*
X1139727Y10216410D1*
X1147500Y10216150D1*
X1267500D1*
X1273673Y10216313D1*
X1281420Y10216990D1*
X1289103Y10218183D1*
X1296693Y10219887D1*
X1304147Y10222100D1*
X1311437Y10224803D1*
X1318530Y10227993D1*
X1325393Y10231653D1*
X1331993Y10235760D1*
X1338303Y10240303D1*
X1344297Y10245260D1*
X1349943Y10250610D1*
X1355217Y10256323D1*
X1360097Y10262377D1*
X1364560Y10268747D1*
X1368583Y10275400D1*
X1372153Y10282310D1*
X1375250Y10289443D1*
X1377863Y10296767D1*
X1379977Y10304250D1*
X1381587Y10311857D1*
X1382680Y10319557D1*
X1383257Y10327313D1*
X1383310Y10335087D1*
X1382840Y10342850D1*
X1381853Y10350563D1*
X1380350Y10358193D1*
X1378340Y10365703D1*
X1375827Y10373063D1*
X1373700Y10378250D1*
X1461357Y10378257D1*
X1459750Y10374557D1*
X1457137Y10367233D1*
X1455023Y10359750D1*
X1453413Y10352143D1*
X1452320Y10344443D1*
X1451743Y10336687D1*
X1451690Y10328913D1*
X1452160Y10321150D1*
X1453147Y10313437D1*
X1454650Y10305807D1*
X1456660Y10298297D1*
X1459173Y10290937D1*
X1462170Y10283760D1*
X1465643Y10276803D1*
X1469577Y10270093D1*
X1473950Y10263663D1*
X1478747Y10257543D1*
X1483940Y10251757D1*
X1489513Y10246330D1*
X1495433Y10241293D1*
X1501683Y10236663D1*
X1508227Y10232460D1*
X1511600Y10230527D1*
X1515037Y10228710D1*
X1518533Y10227007D1*
X1522087Y10225423D1*
X1525687Y10223957D1*
X1529337Y10222617D1*
X1534893Y10220850D1*
X1470000D1*
X1449560Y10218223D1*
X1428123Y10209157D1*
X1412793Y10197133D1*
X1332830Y10117170D1*
X1320233Y10100860D1*
X1311487Y10079290D1*
X1309150Y10059950D1*
Y9730000D1*
X1311777Y9709560D1*
X1320843Y9688123D1*
X1332870Y9672793D1*
X1402830Y9602830D1*
X1419140Y9590233D1*
X1440710Y9581490D1*
X1460063Y9579150D1*
X1607500Y10332000D2*
D15*
X1451647D1*
X1607500Y9468000D2*
X1451647D1*
X1383353Y10332000D2*
X1207500D1*
Y10216120D1*
X1383353Y9468000D2*
X1207500D1*
Y9583880D2*
Y9352120D1*
D126*
X9382635Y2762625D3*
X9248285Y2628275D3*
D129*
X9458347Y2966660D3*
X9323993Y3101007D3*
D29*
X4855000Y6890000D3*
X4665000D3*
X2665000Y9560000D3*
X2475000D3*
X2755000Y10770000D3*
X2565000D3*
D28*
X3320000Y8815000D3*
Y8625000D3*
D30*
X2295000Y10580004D3*
X1965000Y10579996D3*
D31*
X7235000Y5373000D3*
D32*
Y5627000D3*
X7489000Y5373000D3*
Y5627000D3*
X7743000Y5373000D3*
Y5627000D3*
X7997000Y5373000D3*
Y5627000D3*
X8251000Y5373000D3*
Y5627000D3*
X8505000Y5373000D3*
Y5627000D3*
D33*
X6135000Y3350000D3*
X6389000Y3430000D3*
X6135000Y3510000D3*
X6389000Y3590000D3*
X6135000Y3670000D3*
X6389000Y3750000D3*
X6135000Y3830000D3*
X6389000Y3910000D3*
X6135000Y3990000D3*
X6389000Y4070000D3*
X6135000Y4150000D3*
X8131000Y3430000D3*
Y3590000D3*
Y3750000D3*
Y3910000D3*
Y4070000D3*
X8385000Y3350000D3*
Y3510000D3*
Y3670000D3*
Y3830000D3*
Y3990000D3*
Y4150000D3*
X7660000Y2625000D3*
X7580000Y2879000D3*
X7500000Y2625000D3*
X7420000Y2879000D3*
X7340000Y2625000D3*
X7260000Y2879000D3*
X7180000Y2625000D3*
X7100000Y2879000D3*
X7020000Y2625000D3*
X6940000Y2879000D3*
X6860000Y2625000D3*
X7580000Y4621000D3*
X7420000D3*
X7260000D3*
X7100000D3*
X6940000D3*
X7660000Y4875000D3*
X7500000D3*
X7340000D3*
X7180000D3*
X7020000D3*
X6860000D3*
X9081000Y7120000D3*
X9335000Y7200000D3*
X9081000Y7280000D3*
X9335000Y7360000D3*
X9081000Y7440000D3*
X9335000Y7520000D3*
X9081000Y7600000D3*
X9335000Y7680000D3*
X9081000Y7760000D3*
X9335000Y7840000D3*
X9081000Y7920000D3*
X9335000Y8000000D3*
X9081000Y8080000D3*
X9335000Y8160000D3*
X9081000Y8240000D3*
X9335000Y8320000D3*
X6525000Y7120000D3*
X6779000Y7200000D3*
Y7360000D3*
Y7520000D3*
Y7680000D3*
Y7840000D3*
Y8000000D3*
Y8160000D3*
Y8320000D3*
X6525000Y7280000D3*
Y7440000D3*
Y7600000D3*
Y7760000D3*
Y7920000D3*
Y8080000D3*
Y8240000D3*
X7330000Y9125000D3*
X7490000D3*
X7650000D3*
X7810000D3*
X7970000D3*
X8130000D3*
X8290000D3*
X8450000D3*
X7410000Y8857000D3*
X7570000D3*
X7730000D3*
X7890000D3*
X8050000D3*
X8210000D3*
X8370000D3*
X8530000D3*
X8450000Y6555000D3*
X7330000D3*
X7490000D3*
X7650000D3*
X7810000D3*
X7970000D3*
X8130000D3*
X8290000D3*
X8530000Y6315000D3*
X7410000D3*
X7570000D3*
X7730000D3*
X7890000D3*
X8050000D3*
X8210000D3*
X8370000D3*
D31*
X5503000Y8629000D3*
D32*
X5757000D3*
X5503000Y8375000D3*
X5757000D3*
X5503000Y8121000D3*
X5757000D3*
X5503000Y7867000D3*
X5757000D3*
X5503000Y7613000D3*
X5757000D3*
X5503000Y7359000D3*
X5757000D3*
X5503000Y7105000D3*
X5757000D3*
X5503000Y6851000D3*
X5757000D3*
D33*
X2470000Y3420000D3*
Y3580000D3*
Y3740000D3*
Y3900000D3*
X2670000Y3500000D3*
Y3660000D3*
Y3820000D3*
Y3980000D3*
X4130000Y3500000D3*
Y3660000D3*
Y3820000D3*
Y3980000D3*
X3930000Y3420000D3*
Y3580000D3*
Y3740000D3*
Y3900000D3*
X3580000Y2870000D3*
X3420000D3*
X3260000D3*
X3100000D3*
X3500000Y3070000D3*
X3340000D3*
X3180000D3*
X3020000D3*
X3580000Y4330000D3*
X3420000D3*
X3260000D3*
X3100000D3*
X3500000Y4530000D3*
X3340000D3*
X3180000D3*
X3020000D3*
D31*
X10327000Y7089000D3*
D32*
X10073000D3*
X10327000Y7343000D3*
X10073000D3*
X10327000Y7597000D3*
X10073000D3*
X10327000Y7851000D3*
X10073000D3*
D31*
X8644000Y9820000D3*
D32*
X8390000D3*
X8136000D3*
D31*
X3417000Y5540000D3*
D32*
X3163000D3*
X10540000Y1697000D3*
Y1951000D3*
Y2205000D3*
Y2459000D3*
Y2713000D3*
Y2967000D3*
Y3221000D3*
Y3475000D3*
Y3729000D3*
Y3983000D3*
Y4237000D3*
Y4491000D3*
Y4745000D3*
Y4999000D3*
Y5253000D3*
Y5507000D3*
Y5761000D3*
Y6015000D3*
Y6269000D3*
Y6523000D3*
D35*
X10794000Y1697000D3*
D32*
Y1951000D3*
Y2205000D3*
Y2459000D3*
Y2713000D3*
Y2967000D3*
Y3221000D3*
Y3475000D3*
Y3729000D3*
Y4237000D3*
Y4491000D3*
Y4745000D3*
Y4999000D3*
Y5253000D3*
Y5507000D3*
Y5761000D3*
Y6269000D3*
Y6523000D3*
Y3983000D3*
Y6015000D3*
X10039000Y10590000D3*
X10293000D3*
D35*
Y10844000D3*
D32*
X10039000D3*
X9785000D3*
X9531000D3*
X9277000D3*
X9023000D3*
X8769000D3*
X8515000D3*
X8261000D3*
X7753000D3*
X7499000D3*
X7245000D3*
X6991000D3*
X6737000D3*
X6483000D3*
X6229000D3*
X5721000D3*
X5467000D3*
X1834331Y1423098D3*
X2088331Y1423106D3*
X2342331Y1423113D3*
X2596331Y1423121D3*
X2850331Y1423128D3*
X3104331Y1423135D3*
X3358331Y1423143D3*
X3612331Y1423150D3*
X3866331Y1423158D3*
X4120331Y1423165D3*
X4374331Y1423173D3*
X4628331Y1423180D3*
X4882331Y1423188D3*
X5136331Y1423195D3*
D35*
X1834338Y1169098D3*
D32*
X2088338Y1169106D3*
X2342338Y1169113D3*
X2596338Y1169121D3*
X2850338Y1169128D3*
X3104338Y1169135D3*
X3358338Y1169143D3*
X3612338Y1169150D3*
X3866338Y1169158D3*
X4374338Y1169173D3*
X4628338Y1169180D3*
X4882338Y1169188D3*
X5136338Y1169195D3*
X4120338Y1169165D3*
D31*
X8920000Y5393000D3*
D32*
Y5647000D3*
D38*
X1270000Y8395000D3*
Y8445000D3*
Y8495000D3*
D39*
X1245000Y8145000D3*
Y8295000D3*
Y8545000D3*
Y8695000D3*
D40*
X5434000Y6337000D3*
D41*
X5180000D3*
X4926000D3*
Y6083000D3*
X5180000D3*
X5434000D3*
D31*
X4840000Y9172823D3*
D32*
Y8918823D3*
D40*
X4863000Y10184000D3*
D41*
Y9930000D3*
Y9676000D3*
X5117000D3*
Y9930000D3*
Y10184000D3*
D40*
X4810163Y5434117D3*
D41*
X4556163D3*
X4302163D3*
Y5180117D3*
X4556163D3*
X4810163D3*
D31*
X4500005Y9676000D3*
D32*
X4500000Y9930000D3*
X4499995Y10184000D3*
D40*
X5963557Y5608587D3*
D41*
X5709557D3*
X5455557D3*
Y5354587D3*
X5709557D3*
X5963557D3*
D40*
X4433997Y9197249D3*
D41*
X4179997Y9197243D3*
X3925997Y9197238D3*
X3926003Y8943238D3*
X4180003Y8943243D3*
X4434003Y8943249D3*
D40*
X4524000Y6337000D3*
D41*
X4270000D3*
X4016000D3*
Y6083000D3*
X4270000D3*
X4524000D3*
D40*
X3540481Y9318229D3*
D41*
X3286481Y9318223D3*
X3032481Y9318218D3*
X3032486Y9064218D3*
X3286486Y9064223D3*
X3540486Y9064229D3*
D40*
X3574000Y6337000D3*
D41*
X3320000D3*
X3066000D3*
Y6083000D3*
X3320000D3*
X3574000D3*
D42*
X1665000Y10075000D3*
Y10025000D3*
Y9975000D3*
Y9925000D3*
Y9875000D3*
Y9825000D3*
Y9775000D3*
Y9725000D3*
D43*
Y10140000D3*
Y9660000D3*
Y10220000D3*
Y9580000D3*
D44*
X1607500Y10332000D3*
Y9468000D3*
D45*
X1207500Y10332000D3*
Y9468000D3*
D40*
X2614000Y6337000D3*
D41*
X2360000D3*
X2106000D3*
Y6083000D3*
X2360000D3*
X2614000D3*
D40*
X1816028Y6870346D3*
D41*
X1816023Y7124346D3*
X1816019Y7378346D3*
X1562019Y7378341D3*
X1562023Y7124341D3*
X1562028Y6870341D3*
D29*
X8393017Y10107530D3*
X8583017D3*
D28*
X4840000Y8620000D3*
Y8430000D3*
D29*
X2007247Y10280000D3*
X2197247D3*
X2025000Y9560000D3*
X2215000D3*
D46*
X4550006Y7369997D3*
X4549994Y8009997D3*
X4929994Y8010003D3*
X4930006Y7370003D3*
D47*
X3018000Y3284000D3*
X3098000D3*
X3178000D3*
X3258000D3*
X3338000D3*
X3418000D3*
X3498000D3*
X3578000D3*
D48*
X3718000Y3424000D3*
Y3504000D3*
Y3584000D3*
Y3664000D3*
Y3744000D3*
Y3824000D3*
Y3904000D3*
Y3984000D3*
D47*
X3578000Y4124000D3*
X3498000D3*
X3418000D3*
X3338000D3*
X3258000D3*
X3178000D3*
X3098000D3*
X3018000D3*
D48*
X2878000Y3984000D3*
Y3904000D3*
Y3824000D3*
Y3744000D3*
Y3664000D3*
Y3584000D3*
Y3504000D3*
Y3424000D3*
D49*
X8706000Y7118000D3*
Y7198000D3*
Y7278000D3*
Y7358000D3*
Y7438000D3*
Y7518000D3*
Y7598000D3*
Y7678000D3*
Y7758000D3*
Y7838000D3*
Y7918000D3*
Y7998000D3*
Y8078000D3*
Y8158000D3*
Y8238000D3*
Y8318000D3*
D50*
X8526000Y8498000D3*
X8446000D3*
X8366000D3*
X8286000D3*
X8206000D3*
X8126000D3*
X8046000D3*
X7966000D3*
X7886000D3*
X7806000D3*
X7726000D3*
X7646000D3*
X7566000D3*
X7486000D3*
X7406000D3*
X7326000D3*
D49*
X7146000Y8318000D3*
Y8238000D3*
Y8158000D3*
Y8078000D3*
Y7998000D3*
Y7918000D3*
Y7838000D3*
Y7758000D3*
Y7678000D3*
Y7598000D3*
Y7518000D3*
Y7438000D3*
Y7358000D3*
Y7278000D3*
Y7198000D3*
Y7118000D3*
D50*
X7326000Y6938000D3*
X7406000D3*
X7486000D3*
X7566000D3*
X7646000D3*
X7726000D3*
X7806000D3*
X7886000D3*
X7966000D3*
X8046000D3*
X8126000D3*
X8206000D3*
X8286000D3*
X8366000D3*
X8446000D3*
X8526000D3*
X6860000Y3180000D3*
X6940000D3*
X7020000D3*
X7100000D3*
X7180000D3*
X7260000D3*
X7340000D3*
X7420000D3*
X7500000D3*
X7580000D3*
X7660000D3*
D49*
X7830000Y3350000D3*
Y3430000D3*
Y3510000D3*
Y3590000D3*
Y3670000D3*
Y3750000D3*
Y3830000D3*
Y3910000D3*
Y3990000D3*
Y4070000D3*
Y4150000D3*
D50*
X7660000Y4320000D3*
X7580000D3*
X7500000D3*
X7420000D3*
X7340000D3*
X7260000D3*
X7180000D3*
X7100000D3*
X7020000D3*
X6940000D3*
X6860000D3*
D49*
X6690000Y4150000D3*
Y4070000D3*
Y3990000D3*
Y3910000D3*
Y3830000D3*
Y3750000D3*
Y3670000D3*
Y3590000D3*
Y3510000D3*
Y3430000D3*
Y3350000D3*
D51*
X4335500Y8210000D3*
X4208500D3*
X4081500D3*
X3954500D3*
X3827500D3*
X3700500D3*
X3573500D3*
X3446500D3*
X3319500D3*
X3192500D3*
X3065500D3*
X2938500D3*
X2811500D3*
X2684500D3*
Y7130000D3*
X2811500D3*
X2938500D3*
X3065500D3*
X3192500D3*
X3319500D3*
X3446500D3*
X3573500D3*
X3700500D3*
X3827500D3*
X3954500D3*
X4081500D3*
X4208500D3*
X4335500D3*
D52*
X2810000Y10360000D3*
Y10130000D3*
Y9900000D3*
D53*
X3390000Y10130000D3*
D54*
X2215000Y9985000D3*
Y9890000D3*
Y9795000D3*
X2485000D3*
Y9890000D3*
Y9985000D3*
D31*
X3430733Y2230163D3*
D32*
X3938733D3*
D31*
X8942753Y2297653D3*
D32*
Y2805653D3*
D31*
X7971747Y10370979D3*
D32*
X8479747Y10370994D3*
D55*
X2830000Y8620000D3*
X2630000D3*
D56*
X2730000D3*
M02*
